<svg viewBox="0 0 463 1343" fill="none" xmlns="http://www.w3.org/2000/svg">
<g id="body_export">
<g id="zoom">
<g id="head corona EXPAND">
<path id="Vector" d="M231.42 281.785C308.133 281.785 370.321 219.597 370.321 142.884C370.321 66.1711 308.133 3.98297 231.42 3.98297C154.707 3.98297 92.5189 66.1711 92.5189 142.884C92.5189 219.597 154.707 281.785 231.42 281.785Z" fill="#F1F2F2"/>
<path id="Vector_2" d="M231.42 284.894C153.116 284.894 89.4099 221.188 89.4099 142.884C89.4099 64.58 153.116 0.873962 231.42 0.873962C309.726 0.873962 373.43 64.581 373.43 142.884C373.43 221.187 309.725 284.894 231.42 284.894ZM231.42 7.09396C156.545 7.09396 95.6289 68.009 95.6289 142.885C95.6289 217.76 156.545 278.676 231.42 278.676C306.294 278.676 367.21 217.76 367.21 142.885C367.21 68.009 306.294 7.09396 231.42 7.09396Z" fill="#C7C8CA"/>
</g>
<g id="mag glass EXPAND">
<g id="handle">
<g id="Group">
<path id="SVGID 1" d="M401.852 114.412L378.809 91.348L369.257 100.892L392.511 124.165L392.53 124.146C395.176 126.6 399.307 126.546 401.881 123.973C404.451 121.402 404.505 117.274 402.056 114.629L402.064 114.621L401.905 114.463C401.896 114.454 401.888 114.443 401.881 114.435C401.871 114.428 401.862 114.421 401.852 114.412Z" fill="#C7C8CA"/>
</g>
<g id="Group_2">
<path id="Vector_3" d="M351.976 110.261C331.466 110.261 314.781 93.573 314.781 73.064C314.781 52.553 331.467 35.867 351.976 35.867C372.488 35.867 389.173 52.554 389.173 73.064C389.174 93.574 372.488 110.261 351.976 110.261ZM351.976 51.175C339.908 51.175 330.087 60.995 330.087 73.064C330.087 85.133 339.907 94.953 351.976 94.953C364.045 94.953 373.865 85.134 373.865 73.064C373.865 60.995 364.046 51.175 351.976 51.175ZM404.765 114.941L401.917 112.092L390.419 123.59L393.267 126.439L404.765 114.941Z" fill="white"/>
</g>
</g>
<g id="lens">
<path id="Vector_4" d="M351.976 102.606C335.688 102.606 322.434 89.354 322.434 73.064C322.434 56.774 335.688 43.522 351.976 43.522C368.266 43.522 381.519 56.775 381.519 73.064C381.519 89.354 368.266 102.606 351.976 102.606Z" fill="white"/>
<path id="Vector_5" d="M351.976 47.55C366.045 47.55 377.491 58.996 377.491 73.064C377.491 87.132 366.046 98.579 351.976 98.579C337.909 98.579 326.462 87.133 326.462 73.064C326.463 58.995 337.909 47.55 351.976 47.55ZM351.976 39.492C333.436 39.492 318.406 54.522 318.406 73.063C318.406 91.605 333.436 106.634 351.976 106.634C370.517 106.634 385.548 91.605 385.548 73.063C385.549 54.523 370.517 39.492 351.976 39.492Z" fill="#C7C8CA"/>
</g>
</g>
</g>
<path id="white" d="M426.003 790.555C426.003 790.555 428.67 805.555 429.67 824.888C430.67 844.221 431.67 857.555 431.336 864.555C431.003 871.555 419.336 871.222 419.003 864.555C418.67 857.888 415.337 831.889 414.67 823.555C414.003 815.221 409.669 819.221 410.003 821.888C410.336 824.555 412.372 863.843 411.003 873.888C410.003 881.222 403.67 883.222 400.336 877.555C397.003 871.888 398.337 858.221 397.67 850.221C397.003 842.221 395.336 823.888 395.336 821.888C395.336 819.888 391.336 818.556 391.336 823.889C391.336 829.222 392.003 843.555 392.336 849.222C392.747 856.218 392.337 878.222 389.67 879.222C387.003 880.222 382.354 883.118 380.336 872.222C378.67 863.222 380.003 820.222 378.67 819.555C378.003 819.222 376.289 819.002 376.003 821.221C375.716 823.44 375.336 832.888 375.336 832.888C375.336 832.888 374.517 855.273 370.67 856.555C365.67 858.221 362.849 856.318 363.003 851.221C363.336 840.221 365.003 809.888 363.67 796.221C362.859 787.921 359.671 752.555 373.004 737.222C373.004 737.222 350.337 598.555 351.67 561.888C351.67 561.888 335.486 464.513 333.67 424.555C332.837 406.222 330.18 399.867 327.98 397.843L328.669 393.888C328.669 393.888 321.669 440.888 320.669 463.888C319.669 486.888 316.669 535.888 316.669 548.888C316.669 561.888 319.669 625.888 319.669 649.888C319.669 673.888 325.669 899.888 318.669 949.888C311.669 999.888 322.669 1042.89 316.669 1162.89C315.837 1196.16 318.669 1230.39 322.669 1240.89C326.669 1251.39 372.669 1285.89 380.669 1288.89C380.669 1288.89 411.669 1293.39 418.669 1308.39C425.669 1323.39 412.419 1332.89 390.169 1334.89C385.169 1338.39 382.169 1346.39 355.669 1333.39C355.669 1333.39 316.117 1305.21 279.669 1296.39C248.669 1288.89 262.669 1242.89 262.669 1242.89C262.669 1242.89 262.169 1181.89 257.169 1151.89C252.169 1121.89 249.546 1054.31 257.669 993.388C260.669 970.888 241.669 841.556 241.669 800.556C241.669 800.556 238.34 720.918 237.669 711.888C237.47 709.21 236.545 707.903 235.242 707.286L234.031 706.888C230.031 706.888 224.698 705.555 224.031 711.888C223.082 720.893 220.031 800.556 220.031 800.556C220.031 841.556 201.031 970.888 204.031 993.388C212.153 1054.31 209.531 1121.89 204.531 1151.89C199.531 1181.89 199.031 1242.89 199.031 1242.89C199.031 1242.89 213.031 1288.89 182.031 1296.39C145.583 1305.21 106.031 1333.39 106.031 1333.39C79.5308 1346.39 76.5308 1338.39 71.5308 1334.89C49.2808 1332.89 36.0308 1323.39 43.0308 1308.39C50.0308 1293.39 81.0308 1288.89 81.0308 1288.89C89.0308 1285.89 135.031 1251.39 139.031 1240.89C143.031 1230.39 145.863 1196.16 145.031 1162.89C139.031 1042.89 150.031 999.888 143.031 949.888C136.031 899.888 142.031 673.888 142.031 649.888C142.031 625.888 145.031 561.888 145.031 548.888C145.031 535.888 142.031 486.888 141.031 463.888C140.031 440.888 133.031 393.888 133.031 393.888L132.734 399.031C130.783 401.98 128.742 408.9 128.03 424.555C126.214 464.513 110.03 561.888 110.03 561.888C111.363 598.555 88.6969 737.222 88.6969 737.222C102.03 752.555 98.8408 787.921 98.0308 796.221C96.6968 809.888 98.3638 840.221 98.6978 851.221C98.8518 856.318 96.0308 858.221 91.0308 856.555C87.1828 855.273 86.3638 832.888 86.3638 832.888C86.3638 832.888 85.9838 823.44 85.6978 821.221C85.4118 819.002 83.6978 819.222 83.0308 819.555C81.6968 820.222 83.0308 863.222 81.3638 872.222C79.3458 883.118 74.6978 880.222 72.0308 879.222C69.3638 878.222 68.9528 856.218 69.3638 849.222C69.6968 843.555 70.3638 829.222 70.3638 823.889C70.3638 818.556 66.3638 819.888 66.3638 821.888C66.3638 823.888 64.6978 842.221 64.0308 850.221C63.3638 858.221 64.6978 871.888 61.3638 877.555C58.0308 883.222 51.6978 881.222 50.6978 873.888C49.3278 863.843 51.3638 824.555 51.6978 821.888C52.0308 819.221 47.6978 815.221 47.0308 823.555C46.3638 831.889 43.0308 857.888 42.6978 864.555C42.3648 871.222 30.6978 871.555 30.3638 864.555C30.0308 857.555 31.0308 844.221 32.0308 824.888C33.0308 805.555 35.6978 790.555 35.6978 790.555L34.5308 790.888C29.0308 799.388 22.5308 813.888 10.0308 815.388C-2.46916 816.888 1.53084 807.888 4.53084 805.888C7.53084 803.888 18.0308 786.888 18.0308 786.888C19.0308 776.888 22.3758 769.909 28.5308 761.388C35.0308 752.388 45.5308 745.888 47.0308 733.888C47.8938 726.978 48.0308 698.888 48.0308 698.888C47.5308 669.388 46.5308 612.888 53.0308 580.888C57.6478 558.158 63.0308 540.388 67.0308 501.888C71.0308 463.388 79.3638 390.888 79.3638 390.888C82.0308 363.555 81.8409 342.305 93.6969 321.555C109.697 293.555 158.697 294.888 185.698 275.888C200.59 265.409 195.364 230.221 195.364 230.221H266.336C266.336 230.221 261.111 265.409 276.003 275.888C303.003 294.888 352.003 293.555 368.003 321.555C379.86 342.305 379.67 363.555 382.336 390.888C382.336 390.888 390.67 463.388 394.67 501.888C398.67 540.388 404.053 558.158 408.67 580.888C415.17 612.888 414.17 669.388 413.67 698.888C413.67 698.888 413.806 726.978 414.67 733.888C416.17 745.888 426.67 752.388 433.17 761.388C439.324 769.909 442.67 776.888 443.67 786.888C443.67 786.888 454.17 803.888 457.17 805.888C460.17 807.888 464.17 816.888 451.67 815.388C439.17 813.888 432.67 799.388 427.17 790.888L426.003 790.555Z" fill="white"/>
<g id="BODY">
<g id="arm x2B hand 1">
<g id="R elbow palm">
<path id="Vector_6" d="M376.762 792.418C376.34 792.418 375.919 792.408 375.495 792.386C374.667 792.344 374.031 791.638 374.074 790.811C374.116 789.983 374.846 789.342 375.649 789.39C387.921 790.023 400.151 779.844 400.273 779.741C400.907 779.208 401.854 779.29 402.387 779.922C402.921 780.556 402.84 781.502 402.206 782.036C401.686 782.472 389.72 792.418 376.762 792.418ZM368.904 559.388C368.591 559.388 368.275 559.29 368.005 559.088C364.955 556.801 363.576 549.633 363.429 548.823C363.281 548.009 363.821 547.228 364.636 547.079C365.454 546.928 366.232 547.472 366.38 548.286C366.858 550.9 368.209 555.492 369.804 556.688C370.467 557.185 370.601 558.126 370.104 558.788C369.811 559.181 369.36 559.388 368.904 559.388Z" fill="black"/>
</g>
</g>
<g id="leg x2B foot x2B chest 1">
<path id="Vector_7" d="M458.571 804.64C456.614 803.335 449.718 792.884 445.696 786.392C444.557 775.658 440.736 768.515 434.955 760.51C432.887 757.646 430.42 755.023 428.034 752.487C422.721 746.839 417.703 741.504 416.728 733.703C415.885 726.96 415.741 699.162 415.74 698.914L415.749 698.388C416.258 668.393 417.204 612.561 410.71 580.59C409.609 575.173 408.44 569.923 407.31 564.846C403.604 548.203 399.772 530.994 396.732 501.734C392.776 463.666 384.48 391.442 384.399 390.743C383.967 386.308 383.609 382.028 383.263 377.888C381.496 356.74 379.97 338.476 369.876 320.812C360.091 303.688 338.287 297.186 317.201 290.897C302.957 286.648 288.228 282.256 277.437 274.663C263.475 264.838 268.34 230.786 268.391 230.443L268.645 228.723H194.196L194.45 230.443C194.501 230.786 199.367 264.839 185.405 274.663C174.614 282.256 159.885 286.649 145.641 290.897C124.555 297.186 102.75 303.689 92.965 320.813C82.873 338.476 81.3459 356.738 79.5779 377.885C79.2319 382.026 78.874 386.309 78.444 390.719C78.361 391.444 70.0639 463.668 66.1089 501.736C63.0689 530.999 59.2359 548.21 55.5299 564.854C54.3999 569.929 53.2319 575.176 52.1309 580.592C45.6369 612.563 46.584 668.395 47.092 698.39L47.101 698.884C47.1 699.164 46.955 726.962 46.113 733.705C45.138 741.506 40.1199 746.841 34.8069 752.489C32.4209 755.026 29.9539 757.649 27.8859 760.512C22.1049 768.516 18.2839 775.658 17.1449 786.394C13.1229 792.885 6.22793 803.337 4.26993 804.642C2.08493 806.099 -0.336997 810.249 0.840003 813.437C1.588 815.462 3.92094 817.704 10.7799 816.879C22.0309 815.529 28.4909 804.741 33.6809 796.073C33.7759 795.916 33.8689 795.759 33.9629 795.603C33.0869 801.677 31.7459 812.401 31.1039 824.812C30.8479 829.77 30.591 834.332 30.357 838.494C29.676 850.599 29.1849 859.346 29.4369 864.628C29.6509 869.126 33.499 871.179 36.982 871.183C36.985 871.183 36.988 871.183 36.992 871.183C40.695 871.183 44.5519 868.934 44.7659 864.632C44.9469 861.012 46.0359 851.516 47.0879 842.332C47.9649 834.68 48.794 827.452 49.096 823.677C49.301 821.114 49.835 820.298 50.019 820.09C50.346 820.287 50.856 821.09 50.779 821.704C50.478 824.11 48.3449 863.563 49.7809 874.093C50.3759 878.455 52.7469 881.567 55.9689 882.213C58.7529 882.772 61.464 881.315 63.227 878.318C65.76 874.012 65.811 866.198 65.861 858.642C65.881 855.588 65.9 852.704 66.096 850.348C66.289 848.03 66.567 844.844 66.863 841.439C67.783 830.862 68.434 823.269 68.434 821.89C68.434 821.824 68.618 821.635 68.794 821.635C68.958 821.635 69.4329 822.191 69.4329 823.891C69.4329 829.022 68.787 843.152 68.435 849.136C68.229 852.638 68.2219 859.935 68.6139 866.561C69.3869 879.621 71.0679 880.251 72.0719 880.628C72.2699 880.703 72.48 880.788 72.699 880.878C74.26 881.512 76.616 882.472 78.913 881.217C81.068 880.038 82.5379 877.186 83.4069 872.497C84.3079 867.632 84.3549 853.446 84.3959 840.931C84.4219 833.058 84.4519 824.272 84.7439 821.214C84.7569 821.273 84.768 821.34 84.778 821.416C85.052 823.544 85.4289 832.857 85.4329 832.946C85.7529 841.695 86.9179 856.58 91.1249 857.981C94.1809 859.002 96.6169 858.857 98.3649 857.556C99.5219 856.695 100.878 854.889 100.766 851.179C100.701 849.054 100.587 846.209 100.454 842.902C99.9199 829.586 99.025 807.299 100.092 796.37C101.677 780.134 102.55 750.997 90.857 736.785C92.575 726.185 113.312 597.281 112.103 561.989C112.822 557.644 128.331 463.494 130.097 424.627C130.648 412.513 131.984 405.962 133.308 402.424C135.35 416.974 139.368 447.111 140.1 463.957C140.463 472.302 141.082 483.948 141.738 496.279C142.899 518.091 144.098 540.644 144.098 548.892C144.098 554.376 143.561 569.002 142.939 585.937C142.076 609.421 141.098 636.04 141.098 649.892C141.098 654.454 140.879 666.427 140.576 682.998C139.231 756.522 136.431 909.515 142.113 950.1C145.459 973.997 144.681 995.976 143.605 1026.4C142.436 1059.44 140.98 1100.57 144.099 1162.93C144.9 1194.98 142.253 1229.71 138.197 1240.36C134.486 1250.1 89.1809 1284.24 81.2129 1287.43C78.4339 1287.86 49.3009 1292.63 42.2399 1307.76C39.5699 1313.48 39.532 1318.67 42.126 1323.18C46.209 1330.27 56.6509 1334.94 71.5509 1336.35C72.0389 1336.71 72.527 1337.14 73.039 1337.58C77.629 1341.54 83.3429 1346.47 107.26 1334.74L107.469 1334.61C107.863 1334.33 147.212 1306.5 182.951 1297.85C190.415 1296.04 196.017 1291.95 199.601 1285.67C208.654 1269.82 201.915 1245.46 201.101 1242.68C201.142 1238.6 201.807 1180.77 206.579 1152.14C211.354 1123.49 214.358 1055.23 206.086 993.193C204.535 981.561 209.155 939.094 213.623 898.026C217.79 859.723 222.099 820.116 222.098 800.615C222.128 799.819 225.107 720.899 226.09 712.056C226.305 710.12 226.73 708.762 227.327 708.083C227.579 708.276 227.895 708.391 228.237 708.391C229.318 708.391 230.385 708.16 231.418 707.928C232.451 708.16 233.518 708.391 234.599 708.391C234.941 708.391 235.257 708.276 235.509 708.083C236.106 708.762 236.531 710.121 236.746 712.056C237.728 720.899 240.708 799.819 240.737 800.558C240.737 820.116 245.046 859.723 249.213 898.025C253.681 939.093 258.301 981.56 256.75 993.192C248.478 1055.23 251.482 1123.49 256.257 1152.14C261.028 1180.77 261.694 1238.59 261.735 1242.68C260.92 1245.46 254.181 1269.82 263.235 1285.67C266.819 1291.95 272.421 1296.04 279.885 1297.85C315.624 1306.49 354.974 1334.33 355.367 1334.61L355.576 1334.74C366.767 1340.23 373.971 1342.07 378.94 1342.07C384.592 1342.07 387.354 1339.68 389.796 1337.58C390.308 1337.14 390.796 1336.71 391.284 1336.35C406.184 1334.94 416.626 1330.27 420.709 1323.18C423.304 1318.67 423.266 1313.48 420.595 1307.76C413.534 1292.63 384.401 1287.85 381.622 1287.43C373.654 1284.24 328.349 1250.1 324.638 1240.36C320.582 1229.71 317.934 1194.98 318.734 1162.97C321.854 1100.57 320.399 1059.44 319.23 1026.39C318.154 995.975 317.376 973.997 320.722 950.099C326.404 909.514 323.604 756.521 322.259 682.997C321.956 666.426 321.737 654.453 321.737 649.891C321.737 636.038 320.759 609.42 319.896 585.936C319.274 569.001 318.737 554.375 318.737 548.891C318.737 540.643 319.937 518.089 321.097 496.278C321.753 483.947 322.372 472.301 322.735 463.956C323.468 447.103 327.489 416.946 329.53 402.403C330.839 405.893 332.184 412.417 332.739 424.626C334.506 463.493 350.014 557.643 350.733 561.988C349.524 597.28 370.262 726.184 371.98 736.784C360.283 751.001 361.158 780.135 362.745 796.369C363.81 807.291 362.917 829.567 362.383 842.876C362.25 846.194 362.135 849.048 362.071 851.178C361.959 854.889 363.315 856.695 364.472 857.555C366.22 858.856 368.655 858.998 371.711 857.98C375.917 856.579 377.082 841.693 377.402 832.95C377.405 832.856 377.782 823.543 378.058 821.415C378.068 821.339 378.079 821.273 378.092 821.214C378.384 824.274 378.413 833.058 378.439 840.929C378.481 853.446 378.527 867.632 379.428 872.497C380.297 877.185 381.766 880.038 383.922 881.217C386.221 882.474 388.578 881.514 390.137 880.878C390.356 880.789 390.566 880.703 390.763 880.628C391.768 880.252 393.449 879.621 394.221 866.561C394.613 859.936 394.605 852.639 394.4 849.136C394.048 843.152 393.402 829.022 393.402 823.891C393.402 822.19 393.878 821.635 394.041 821.635C394.218 821.635 394.402 821.824 394.402 821.89C394.402 823.267 395.052 830.848 395.971 841.406C396.268 844.823 396.547 848.022 396.741 850.347C396.937 852.702 396.956 855.588 396.976 858.642C397.026 866.198 397.077 874.011 399.609 878.317C401.124 880.892 403.34 882.33 405.698 882.33C406.085 882.33 406.476 882.291 406.868 882.212C410.089 881.565 412.46 878.454 413.055 874.092C414.488 863.579 412.358 824.112 412.057 821.703C411.98 821.088 412.491 820.286 412.817 820.089C413.001 820.297 413.535 821.111 413.741 823.676C414.043 827.451 414.871 834.679 415.749 842.331C416.802 851.515 417.891 861.011 418.071 864.631C418.286 868.934 422.143 871.182 425.845 871.182C425.848 871.182 425.852 871.182 425.856 871.182C429.339 871.178 433.186 869.125 433.4 864.627C433.652 859.344 433.16 850.594 432.48 838.483C432.246 834.323 431.99 829.764 431.734 824.811C431.092 812.399 429.751 801.675 428.875 795.602C428.968 795.758 429.062 795.915 429.157 796.072C434.347 804.74 440.806 815.528 452.058 816.878C458.924 817.702 461.251 815.461 461.998 813.436C463.178 810.247 460.756 806.096 458.571 804.64ZM459.187 812.396C458.667 813.805 456.198 814.353 452.418 813.899C442.627 812.724 436.587 802.636 431.733 794.53C430.782 792.941 429.883 791.441 428.998 790.073L428.799 789.827C428.419 789.447 427.8 789.155 425.496 788.101C419.29 785.263 404.757 778.616 397.433 768.979C396.931 768.32 395.991 768.191 395.331 768.692C394.671 769.193 394.543 770.134 395.044 770.794C402.824 781.03 417.837 787.897 424.248 790.828C424.559 790.97 424.873 791.114 425.169 791.25C425.607 793.848 427.851 807.761 428.74 824.963C428.996 829.921 429.253 834.484 429.487 838.648C430.162 850.668 430.65 859.353 430.405 864.481C430.276 867.206 427.873 868.176 425.854 868.178C425.852 868.178 425.849 868.178 425.846 868.178C423.633 868.178 421.195 867.021 421.068 864.477C420.882 860.761 419.788 851.216 418.73 841.985C417.856 834.359 417.03 827.156 416.732 823.432C416.459 820.016 415.569 818.011 414.012 817.299C413.046 816.857 411.951 817.004 411.006 817.697C409.694 818.66 408.884 820.5 409.081 822.071C409.377 824.447 411.445 863.692 410.083 873.682C409.672 876.693 408.179 878.885 406.278 879.266C404.783 879.57 403.297 878.663 402.195 876.791C400.071 873.181 400.021 865.444 399.976 858.618C399.956 855.504 399.936 852.563 399.73 850.093C399.536 847.765 399.257 844.562 398.959 841.141C398.265 833.164 397.401 823.238 397.401 821.885C397.401 820.12 395.862 818.63 394.041 818.63C392.972 818.63 391.988 819.171 391.342 820.114C390.718 821.026 390.402 822.295 390.402 823.886C390.402 829.072 391.051 843.292 391.404 849.307C391.905 857.833 391.128 875.574 389.518 877.888C389.353 877.953 389.181 878.023 389.004 878.095C387.483 878.714 386.331 879.113 385.359 878.58C384.468 878.093 383.228 876.547 382.376 871.947C381.524 867.347 381.478 853.305 381.437 840.915C381.364 818.941 381.17 818.844 379.905 818.211C379.166 817.842 377.915 817.62 376.816 818.207C376.144 818.565 375.298 819.345 375.081 821.027C374.789 823.285 374.418 832.438 374.403 832.832C373.995 843.971 372.311 854.19 370.762 855.131C369.338 855.604 367.401 855.993 366.262 855.145C365.203 854.357 365.029 852.6 365.069 851.265C365.133 849.142 365.247 846.298 365.38 842.993C365.952 828.741 366.815 807.202 365.73 796.074C364.17 780.11 363.261 751.363 374.703 738.205L375.165 737.674L375.052 736.979C374.825 735.594 352.424 598.042 353.737 561.942L353.742 561.791L353.717 561.642C353.555 560.669 337.527 463.898 335.736 424.487C335.089 410.234 333.237 401.159 330.232 397.462C330.53 395.39 330.71 394.183 330.72 394.109C330.842 393.29 330.277 392.526 329.457 392.404C328.641 392.279 327.875 392.847 327.753 393.666C327.742 393.741 327.555 395.002 327.245 397.154C327.081 397.464 327.036 397.803 327.104 398.137C325.342 410.449 320.548 445.171 319.738 463.822C319.376 472.152 318.757 483.791 318.101 496.114C316.939 517.965 315.737 540.559 315.737 548.886C315.737 554.425 316.275 569.076 316.899 586.041C317.761 609.499 318.737 636.088 318.737 649.886C318.737 654.475 318.956 666.46 319.26 683.047C320.499 750.759 323.401 909.328 317.752 949.678C314.37 973.836 315.151 995.924 316.233 1026.49C317.4 1059.48 318.853 1100.54 315.738 1162.85C314.928 1195.22 317.664 1230.47 321.836 1241.42C326.191 1252.85 373.342 1287.53 380.711 1290.29L381.022 1290.37C381.324 1290.41 411.303 1294.93 417.878 1309.02C420.111 1313.8 420.189 1318.06 418.11 1321.67C414.544 1327.87 404.518 1332.14 390.603 1333.39L390.205 1333.43L389.877 1333.66C389.16 1334.16 388.487 1334.74 387.837 1335.3C383.922 1338.68 379.053 1342.88 357.005 1332.09C354.725 1330.49 315.993 1303.49 280.59 1294.93C273.963 1293.32 269.002 1289.71 265.843 1284.18C257.075 1268.84 264.595 1243.57 264.672 1243.32L264.739 1243.1L264.737 1242.87C264.732 1242.26 264.178 1181.41 259.216 1151.64C254.471 1123.17 251.492 1055.31 259.723 993.583C261.322 981.591 256.889 940.84 252.195 897.696C248.036 859.472 243.737 819.948 243.736 800.496C243.613 797.241 240.722 720.67 239.728 711.719C239.368 708.475 238.488 706.457 236.959 705.366C235.252 704.149 233.25 704.45 231.418 704.848C229.586 704.452 227.585 704.149 225.877 705.366C224.348 706.457 223.468 708.475 223.108 711.719C222.113 720.67 219.222 797.241 219.099 800.552C219.099 819.947 214.799 859.471 210.641 897.695C205.947 940.839 201.514 981.59 203.113 993.582C211.343 1055.32 208.364 1123.17 203.62 1151.64C198.658 1181.41 198.104 1242.26 198.099 1242.87L198.097 1243.1L198.164 1243.32C198.241 1243.57 205.769 1268.82 196.997 1284.18C193.839 1289.7 188.876 1293.32 182.247 1294.93C146.844 1303.49 108.113 1330.48 105.832 1332.09C83.7849 1342.88 78.9149 1338.68 74.9999 1335.3C74.3499 1334.74 73.677 1334.16 72.96 1333.65L72.632 1333.43L72.2339 1333.39C58.3189 1332.14 48.293 1327.87 44.727 1321.67C42.648 1318.06 42.7259 1313.8 44.9589 1309.02C51.5339 1294.93 81.513 1290.41 81.815 1290.37L82.126 1290.29C89.495 1287.53 136.646 1252.85 141.001 1241.42C145.173 1230.47 147.908 1195.22 147.097 1162.81C143.984 1100.54 145.436 1059.48 146.603 1026.49C147.685 995.923 148.466 973.835 145.084 949.677C139.435 909.326 142.337 750.758 143.576 683.046C143.88 666.459 144.099 654.475 144.099 649.885C144.099 636.088 145.076 609.499 145.937 586.04C146.561 569.075 147.099 554.424 147.099 548.885C147.099 540.557 145.897 517.963 144.735 496.113C144.079 483.79 143.46 472.15 143.098 463.821C142.106 441.007 135.153 394.135 135.083 393.665C134.961 392.846 134.191 392.277 133.379 392.403C132.559 392.525 131.994 393.288 132.116 394.108C132.127 394.184 132.32 395.483 132.638 397.692C132.409 397.805 132.203 397.973 132.052 398.201C129.376 402.246 127.71 411.09 127.1 424.485C125.309 463.896 109.281 560.667 109.119 561.64L109.094 561.789L109.099 561.94C110.412 598.039 88.0109 735.592 87.785 736.977L87.6719 737.672L88.1339 738.203C99.5719 751.356 98.665 780.105 97.107 796.072C96.02 807.206 96.8849 828.756 97.4569 843.015C97.589 846.31 97.703 849.145 97.767 851.263C97.808 852.598 97.633 854.355 96.574 855.143C95.436 855.99 93.498 855.603 92.112 855.144C90.526 854.188 88.8409 843.969 88.4319 832.824C88.4159 832.435 88.0459 823.283 87.7549 821.025C87.5379 819.343 86.6919 818.563 86.0199 818.205C84.9199 817.619 83.669 817.841 82.93 818.209C81.666 818.841 81.472 818.938 81.398 840.914C81.357 853.303 81.3109 867.346 80.4589 871.945C79.6069 876.545 78.367 878.091 77.476 878.578C76.506 879.11 75.3529 878.711 73.8329 878.093C73.6559 878.021 73.484 877.951 73.319 877.886C71.709 875.572 70.9309 857.831 71.4319 849.305C71.7859 843.29 72.434 829.07 72.434 823.884C72.434 822.292 72.1179 821.023 71.4939 820.112C70.8479 819.169 69.864 818.628 68.795 818.628C66.974 818.628 65.435 820.119 65.435 821.883C65.435 823.238 64.5699 833.182 63.8749 841.172C63.5779 844.581 63.301 847.771 63.107 850.091C62.901 852.561 62.881 855.501 62.861 858.614C62.816 865.441 62.7649 873.178 60.6409 876.789C59.5389 878.662 58.05 879.566 56.559 879.264C54.658 878.883 53.1639 876.691 52.7539 873.68C51.3889 863.672 53.4589 824.443 53.7559 822.069C53.9519 820.497 53.142 818.657 51.83 817.694C50.884 817.001 49.789 816.856 48.825 817.297C47.268 818.009 46.379 820.015 46.106 823.43C45.808 827.154 44.9819 834.357 44.1079 841.983C43.0499 851.214 41.9559 860.759 41.7699 864.475C41.6429 867.018 39.206 868.176 36.992 868.176C36.99 868.176 36.9869 868.176 36.9849 868.176C34.9659 868.174 32.5629 867.204 32.4329 864.479C32.1889 859.353 32.677 850.671 33.352 838.656C33.586 834.489 33.843 829.923 34.1 824.961C34.99 807.758 37.2329 793.846 37.6709 791.248C37.9679 791.111 38.281 790.968 38.592 790.826C45.003 787.894 60.0159 781.028 67.7959 770.792C68.2969 770.132 68.169 769.191 67.5089 768.69C66.8489 768.189 65.9089 768.317 65.4069 768.977C58.0829 778.614 43.5499 785.26 37.3439 788.099C35.0399 789.153 34.4209 789.444 34.0409 789.825L33.842 790.071C32.957 791.439 32.058 792.939 31.107 794.528C26.253 802.634 20.2129 812.722 10.4219 813.897C6.64291 814.351 4.17299 813.803 3.65299 812.394C3.05199 810.766 4.62592 808.005 5.93192 807.134C9.04592 805.058 18.094 790.559 19.876 787.674L20.0579 787.38L20.0929 787.036C21.1189 776.775 24.765 769.95 30.316 762.265C32.271 759.558 34.67 757.007 36.991 754.54C42.399 748.79 47.9919 742.844 49.0879 734.072C49.9529 727.153 50.0939 700.044 50.0989 698.861L50.09 698.335C49.584 668.455 48.64 612.836 55.069 581.185C56.163 575.797 57.277 570.796 58.456 565.501C62.181 548.774 66.033 531.477 69.091 502.041C73.044 463.99 81.339 391.782 81.424 391.032C81.859 386.575 82.218 382.282 82.565 378.131C84.375 356.483 85.804 339.384 95.566 322.298C104.755 306.217 125.029 300.171 146.495 293.769C160.97 289.452 175.937 284.988 187.128 277.113C200.833 267.47 198.501 239.096 197.637 231.719H265.196C264.333 239.095 262.002 267.469 275.706 277.113C286.897 284.988 301.864 289.452 316.339 293.769C337.804 300.171 358.078 306.217 367.267 322.298C377.031 339.385 378.46 356.486 380.269 378.136C380.616 382.286 380.974 386.577 381.412 391.058C381.495 391.783 389.791 463.99 393.744 502.041C396.802 531.474 400.654 548.77 404.378 565.496C405.557 570.792 406.671 575.795 407.766 581.185C414.195 612.836 413.252 668.455 412.745 698.335L412.736 698.894C412.741 700.044 412.882 727.153 413.748 734.073C414.844 742.845 420.437 748.791 425.845 754.541C428.166 757.008 430.566 759.559 432.52 762.265C438.071 769.952 441.718 776.777 442.744 787.036L442.779 787.38L442.961 787.674C444.743 790.559 453.791 805.058 456.905 807.134C458.214 808.007 459.788 810.768 459.187 812.396Z" fill="black"/>
<g id="knees">
<g id="Group_3">
<path id="Vector_8" d="M179.1 1000.39C178.716 1000.39 178.332 1000.24 178.039 999.949C177.453 999.363 177.453 998.414 178.039 997.828C182.264 993.603 186.659 982.454 186.703 982.342C187.005 981.571 187.873 981.19 188.647 981.492C189.418 981.794 189.799 982.664 189.497 983.435C189.309 983.916 184.829 995.281 180.161 999.949C179.868 1000.24 179.484 1000.39 179.1 1000.39Z" fill="black"/>
</g>
<g id="Group_4">
<path id="Vector_9" d="M285.1 1000.39C284.716 1000.39 284.332 1000.24 284.039 999.949C279.371 995.281 274.891 983.917 274.703 983.435C274.401 982.664 274.782 981.793 275.553 981.492C276.327 981.189 277.195 981.57 277.497 982.342C277.541 982.454 281.936 993.604 286.161 997.828C286.747 998.414 286.747 999.363 286.161 999.949C285.868 1000.24 285.484 1000.39 285.1 1000.39Z" fill="black"/>
</g>
</g>
<g id="toes L">
<g id="Group_5">
<path id="Vector_10" d="M184.602 1252.39C184.092 1252.39 183.596 1252.13 183.314 1251.66C182.888 1250.95 183.118 1250.03 183.828 1249.6C190.065 1245.86 185.254 1233.06 185.204 1232.94C184.901 1232.17 185.281 1231.29 186.052 1230.99C186.823 1230.69 187.694 1231.07 187.996 1231.84C188.24 1232.46 193.863 1247.08 185.372 1252.17C185.13 1252.32 184.864 1252.39 184.602 1252.39Z" fill="black"/>
</g>
<g id="Group_6">
<path id="Vector_11" d="M60.846 1334.13C60.142 1334.13 59.516 1333.64 59.377 1332.92C59.244 1332.24 56.4199 1316.01 82.4049 1307.96C83.1979 1307.71 84.0369 1308.15 84.2819 1308.94C84.5279 1309.73 84.085 1310.58 83.294 1310.82C60.002 1318.04 62.218 1331.78 62.324 1332.36C62.472 1333.17 61.937 1333.96 61.126 1334.11C61.032 1334.13 60.939 1334.13 60.846 1334.13Z" fill="black"/>
</g>
<g id="Group_7">
<path id="Vector_12" d="M50.8489 1330.89C50.1699 1330.89 49.5559 1330.42 49.3909 1329.74C49.3499 1329.57 45.5639 1312.56 66.6359 1305.71C67.4259 1305.46 68.271 1305.89 68.527 1306.67C68.783 1307.46 68.352 1308.31 67.564 1308.57C49.092 1314.57 52.169 1328.45 52.309 1329.04C52.501 1329.85 52.0029 1330.66 51.1979 1330.85C51.0809 1330.88 50.9639 1330.89 50.8489 1330.89Z" fill="black"/>
</g>
<g id="Group_8">
<path id="Vector_13" d="M44.0979 1325.89C43.3819 1325.89 42.748 1325.37 42.622 1324.64C42.595 1324.49 40.0979 1308.88 55.7849 1302.5C56.5519 1302.19 57.4279 1302.56 57.7399 1303.32C58.0519 1304.09 57.6829 1304.97 56.9159 1305.28C43.4399 1310.76 45.5559 1324 45.5789 1324.13C45.7199 1324.95 45.172 1325.73 44.356 1325.87C44.269 1325.88 44.1829 1325.89 44.0979 1325.89Z" fill="black"/>
</g>
<g id="Group_9">
<path id="Vector_14" d="M72.85 1337.14C72.206 1337.14 71.611 1336.72 71.414 1336.07C69.631 1330.18 70.1979 1325.2 73.0979 1321.3C79.4529 1312.74 94.704 1312.64 95.35 1312.64C96.178 1312.64 96.849 1313.31 96.85 1314.14C96.851 1314.97 96.18 1315.64 95.351 1315.64C95.207 1315.64 80.953 1315.74 75.503 1323.09C73.203 1326.19 72.7929 1330.27 74.2859 1335.21C74.5259 1336 74.077 1336.84 73.284 1337.07C73.14 1337.12 72.993 1337.14 72.85 1337.14Z" fill="black"/>
</g>
</g>
<g id="toes R">
<g id="Group_10">
<path id="Vector_15" d="M278.237 1252.39C277.974 1252.39 277.708 1252.32 277.466 1252.17C268.975 1247.08 274.598 1232.46 274.842 1231.84C275.145 1231.07 276.014 1230.69 276.785 1230.99C277.556 1231.29 277.936 1232.16 277.634 1232.94C277.584 1233.06 272.688 1245.81 279.009 1249.6C279.719 1250.03 279.949 1250.95 279.523 1251.66C279.243 1252.13 278.747 1252.39 278.237 1252.39Z" fill="black"/>
</g>
<g id="Group_11">
<path id="Vector_16" d="M401.99 1334.14C401.896 1334.14 401.8 1334.13 401.703 1334.11C400.892 1333.95 400.361 1333.17 400.514 1332.36C400.623 1331.76 402.817 1318.04 379.544 1310.82C378.753 1310.58 378.31 1309.74 378.556 1308.94C378.801 1308.15 379.641 1307.71 380.433 1307.96C406.418 1316.01 403.594 1332.24 403.461 1332.92C403.322 1333.64 402.694 1334.14 401.99 1334.14Z" fill="black"/>
</g>
<g id="Group_12">
<path id="Vector_17" d="M411.99 1330.89C411.875 1330.89 411.758 1330.87 411.641 1330.85C410.836 1330.66 410.339 1329.85 410.529 1329.04C410.669 1328.44 413.639 1314.53 395.275 1308.57C394.487 1308.31 394.056 1307.46 394.312 1306.67C394.568 1305.89 395.416 1305.46 396.203 1305.71C417.275 1312.56 413.489 1329.57 413.448 1329.74C413.283 1330.42 412.668 1330.89 411.99 1330.89Z" fill="black"/>
</g>
<g id="Group_13">
<path id="Vector_18" d="M418.74 1325.89C418.655 1325.89 418.57 1325.88 418.483 1325.87C417.668 1325.73 417.12 1324.95 417.259 1324.14C417.353 1323.57 419.326 1310.73 405.922 1305.28C405.155 1304.97 404.786 1304.09 405.098 1303.32C405.411 1302.56 406.286 1302.19 407.053 1302.5C422.74 1308.88 420.243 1324.49 420.216 1324.65C420.091 1325.37 419.457 1325.89 418.74 1325.89Z" fill="black"/>
</g>
<g id="Group_14">
<path id="Vector_19" d="M389.989 1337.14C389.845 1337.14 389.699 1337.12 389.554 1337.07C388.761 1336.84 388.312 1336 388.552 1335.21C390.045 1330.27 389.635 1326.19 387.331 1323.09C381.866 1315.72 367.631 1315.64 367.488 1315.64C366.659 1315.64 365.988 1314.97 365.988 1314.14C365.988 1313.31 366.659 1312.64 367.488 1312.64C368.134 1312.64 383.384 1312.74 389.74 1321.3C392.64 1325.2 393.207 1330.18 391.424 1336.07C391.228 1336.72 390.633 1337.14 389.989 1337.14Z" fill="black"/>
</g>
</g>
</g>
</g>
<g id="HEAD">
<g id="ear">
<g id="Group_15">
<path id="Vector_20" d="M158.6 143.388C158.6 143.388 142.1 133.388 140.1 161.888C138.1 190.388 159.933 202.721 166.933 195.721" fill="white"/>
<path id="Vector_21" d="M161.822 199.151C159.889 199.151 157.765 198.657 155.578 197.66C146.177 193.374 137.283 180.618 138.604 161.783C139.37 150.869 142.346 143.995 147.449 141.352C153.145 138.402 159.126 141.953 159.378 142.105C160.087 142.534 160.314 143.457 159.884 144.165C159.455 144.872 158.537 145.099 157.827 144.673C157.779 144.644 152.998 141.84 148.81 144.026C144.768 146.135 142.274 152.348 141.596 161.993C140.375 179.394 148.364 191.074 156.823 194.93C160.543 196.627 164.011 196.523 165.873 194.66C166.459 194.074 167.408 194.074 167.994 194.66C168.58 195.245 168.58 196.196 167.994 196.781C166.421 198.355 164.275 199.15 161.822 199.151Z" fill="black"/>
</g>
<g id="Group_16">
<path id="Vector_22" d="M162.268 161.221C161.77 161.221 161.283 160.973 160.997 160.522C159.728 158.514 155.344 152.872 151.956 153.287C149.667 153.565 148.145 156.745 147.272 159.363C147.01 160.15 146.162 160.575 145.376 160.312C144.59 160.05 144.165 159.201 144.427 158.415C146.096 153.409 148.508 150.682 151.599 150.309C157.484 149.599 162.933 157.967 163.536 158.923C163.977 159.624 163.767 160.549 163.066 160.99C162.818 161.146 162.542 161.221 162.268 161.221Z" fill="black"/>
</g>
<g id="Group_17">
<path id="Vector_23" d="M157.352 185.638C157.313 185.638 157.275 185.637 157.235 185.634C149.768 185.06 147.592 172.546 147.369 171.121C147.24 170.303 147.8 169.536 148.617 169.407C149.437 169.283 150.203 169.837 150.333 170.655C150.842 173.876 153.116 182.308 157.466 182.643C158.292 182.706 158.91 183.428 158.847 184.254C158.786 185.04 158.128 185.638 157.352 185.638Z" fill="black"/>
</g>
<g id="Group_18">
<path id="Vector_24" d="M156.851 175.638C156.406 175.638 155.965 175.441 155.669 175.062C153.832 172.716 153.849 170.669 154.186 169.365C155.14 165.669 159.518 163.717 160.014 163.507C160.778 163.184 161.659 163.539 161.981 164.302C162.304 165.064 161.95 165.943 161.189 166.267C160.216 166.685 157.583 168.193 157.089 170.121C156.844 171.078 157.152 172.089 158.031 173.213C158.542 173.865 158.427 174.808 157.774 175.318C157.501 175.534 157.174 175.638 156.851 175.638Z" fill="black"/>
</g>
</g>
<g id="ear 1">
<g id="Group_19">
<path id="Vector_25" d="M304.239 143.388C304.239 143.388 320.739 133.388 322.739 161.888C324.739 190.388 302.599 203.388 295.599 196.388" fill="white"/>
<path id="Vector_26" d="M300.57 199.754C298.166 199.754 296.07 198.98 294.539 197.448C293.953 196.863 293.953 195.912 294.539 195.327C295.125 194.741 296.074 194.741 296.66 195.327C298.491 197.158 301.809 197.237 305.536 195.538C314.247 191.567 322.482 179.654 321.243 161.993C320.564 152.332 318.063 146.116 314.011 144.016C309.794 141.829 305.064 144.642 305.017 144.671C304.309 145.102 303.386 144.874 302.956 144.166C302.526 143.458 302.753 142.535 303.462 142.106C303.713 141.954 309.695 138.403 315.391 141.353C320.494 143.997 323.47 150.871 324.236 161.784C325.576 180.88 316.435 193.868 306.781 198.269C304.6 199.262 302.487 199.754 300.57 199.754Z" fill="black"/>
</g>
<g id="Group_20">
<path id="Vector_27" d="M300.932 161.221C300.666 161.221 300.397 161.151 300.153 161.002C299.446 160.571 299.221 159.648 299.652 158.94C300.233 157.987 305.483 149.639 311.265 150.3C314.328 150.647 316.734 153.376 318.412 158.413C318.674 159.199 318.249 160.048 317.463 160.31C316.679 160.574 315.828 160.148 315.567 159.361C314.689 156.727 313.171 153.535 310.928 153.281C307.623 152.894 303.427 158.509 302.214 160.5C301.932 160.965 301.438 161.221 300.932 161.221Z" fill="black"/>
</g>
<g id="Group_21">
<path id="Vector_28" d="M305.487 185.638C304.711 185.638 304.053 185.04 303.993 184.253C303.93 183.427 304.548 182.706 305.374 182.642C309.714 182.308 312.036 173.659 312.507 170.655C312.636 169.837 313.41 169.279 314.222 169.405C315.04 169.533 315.6 170.301 315.471 171.119C315.247 172.544 313.072 185.058 305.605 185.632C305.564 185.637 305.526 185.638 305.487 185.638Z" fill="black"/>
</g>
<g id="Group_22">
<path id="Vector_29" d="M305.988 175.638C305.665 175.638 305.339 175.534 305.064 175.319C304.412 174.809 304.296 173.866 304.807 173.214C305.688 172.088 305.995 171.075 305.748 170.116C305.248 168.182 302.556 166.652 301.652 166.269C300.889 165.945 300.533 165.065 300.857 164.302C301.18 163.539 302.062 163.184 302.824 163.507C303.32 163.717 307.698 165.67 308.652 169.365C308.989 170.669 309.006 172.716 307.169 175.062C306.874 175.44 306.433 175.638 305.988 175.638Z" fill="black"/>
</g>
</g>
<g id="jaw 1">
<g id="Group_23">
<path id="Vector_30" d="M230.239 30.888C230.239 30.888 310.183 31.808 303.739 124.388C298.239 203.388 288.602 212.186 283.905 217.555C279.404 222.699 252.726 240.56 232.892 243.164C232.509 243.214 231.932 243.273 231.472 243.318C231.058 243.359 230.856 243.278 230.221 243.2C210.361 240.726 183.454 222.722 178.932 217.554C174.236 212.185 164.599 203.387 159.099 124.387C152.655 31.807 232.599 30.887 232.599 30.887" fill="white"/>
</g>
<g id="Group_24">
<path id="Vector_31" d="M231.261 244.829C230.961 244.829 230.716 244.79 230.477 244.752C230.357 244.733 230.216 244.71 230.038 244.689C210.035 242.198 182.763 224.21 177.804 218.543L177.405 218.089C172.366 212.393 162.986 201.791 157.604 124.492C155.506 94.366 162.239 70.637 177.612 53.965C195.976 34.049 220.933 30.271 229.551 29.555C229.762 29.446 230.019 29.389 230.256 29.388C230.383 29.389 230.782 29.397 231.42 29.429C232.057 29.397 232.456 29.39 232.583 29.388C232.848 29.389 233.077 29.446 233.288 29.555C241.906 30.271 266.863 34.049 285.227 53.965C300.6 70.637 307.332 94.366 305.235 124.492C299.853 201.793 290.472 212.394 285.433 218.09L285.034 218.543C280.132 224.145 253.05 242.031 233.088 244.652C232.691 244.704 232.094 244.765 231.619 244.812C231.491 244.824 231.373 244.829 231.261 244.829ZM231.419 32.443C225.461 32.813 198.605 35.602 179.794 56.024C165.019 72.064 158.56 95.03 160.597 124.284C165.908 200.566 175.19 211.058 179.651 216.101L180.062 216.567C184.683 221.848 211.445 239.35 230.408 241.712C230.627 241.739 230.8 241.766 230.948 241.79C231.219 241.833 231.246 241.834 231.326 241.826C231.772 241.783 232.33 241.725 232.7 241.677C251.63 239.191 278.209 221.787 282.777 216.567L283.187 216.101C287.649 211.059 296.932 200.568 302.243 124.284C304.28 95.03 297.821 72.064 283.046 56.024C264.234 35.602 237.378 32.813 231.419 32.443Z" fill="black"/>
</g>
</g>
<g id="face">
<g id="Group_25">
<path id="Vector_32" d="M177.937 115.712C177.547 115.712 177.159 115.562 176.867 115.263C176.293 114.675 176.293 113.742 176.873 113.161C177.052 112.983 181.4 108.776 195.419 107.066C209.594 105.338 212.856 109.567 213.182 110.056C213.642 110.745 213.455 111.677 212.766 112.136C212.092 112.584 211.191 112.418 210.721 111.77C210.589 111.621 207.73 108.586 195.783 110.044C182.992 111.605 179.02 115.259 178.982 115.296C178.689 115.574 178.313 115.712 177.937 115.712Z" fill="black"/>
</g>
<g id="Group_26">
<path id="Vector_33" d="M181.935 132.055C181.831 132.055 181.725 132.044 181.619 132.021C180.809 131.847 180.294 131.05 180.467 130.24C181.859 123.745 186.88 120.299 196.748 119.066C208.304 117.621 213.868 127.744 213.923 127.846C214.315 128.576 214.039 129.486 213.31 129.877C212.579 130.268 211.671 129.993 211.281 129.266C211.085 128.906 206.593 120.858 197.121 122.043C186.439 123.378 184.215 127.074 183.401 130.869C183.25 131.574 182.627 132.055 181.935 132.055Z" fill="black"/>
</g>
<g id="Group_27">
<path id="Vector_34" d="M197.766 131.221C200.987 131.221 203.599 128.609 203.599 125.388C203.599 122.167 200.987 119.555 197.766 119.555C194.544 119.555 191.933 122.167 191.933 125.388C191.933 128.609 194.544 131.221 197.766 131.221Z" fill="black"/>
</g>
<g id="Group_28">
<path id="Vector_35" d="M284.905 115.722C284.521 115.722 284.137 115.576 283.844 115.283C283.819 115.26 279.847 111.605 267.057 110.044C254.874 108.56 252.139 111.744 252.114 111.775C251.654 112.464 250.743 112.624 250.053 112.163C249.364 111.704 249.197 110.745 249.657 110.056C249.982 109.568 253.242 105.336 267.421 107.066C281.439 108.776 285.787 112.983 285.966 113.161C286.552 113.746 286.552 114.697 285.966 115.282C285.672 115.576 285.289 115.722 284.905 115.722Z" fill="black"/>
</g>
<g id="Group_29">
<path id="Vector_36" d="M280.903 132.055C280.211 132.055 279.589 131.573 279.438 130.869C278.625 127.074 276.4 123.378 265.718 122.043C256.238 120.864 251.745 128.923 251.559 129.267C251.164 129.994 250.256 130.266 249.528 129.873C248.8 129.48 248.526 128.575 248.917 127.846C248.972 127.744 254.536 117.628 266.091 119.066C275.959 120.299 280.981 123.745 282.372 130.24C282.545 131.05 282.029 131.847 281.22 132.021C281.113 132.044 281.007 132.055 280.903 132.055Z" fill="black"/>
</g>
<g id="Group_30">
<path id="Vector_37" d="M265.573 131.221C268.518 131.221 270.906 128.609 270.906 125.388C270.906 122.167 268.518 119.555 265.573 119.555C262.628 119.555 260.24 122.167 260.24 125.388C260.24 128.609 262.628 131.221 265.573 131.221Z" fill="black"/>
</g>
<g id="Group_31">
<g id="Group_32">
<path id="Vector_38" d="M230.599 179.388C217.868 179.025 216.2 172.172 216.135 171.88C215.955 171.071 216.465 170.27 217.274 170.09C218.083 169.911 218.884 170.421 219.064 171.229C219.11 171.401 220.463 176.097 230.642 176.388H232.239C242.374 176.098 243.728 171.402 243.781 171.202C243.989 170.412 244.796 169.92 245.59 170.112C246.384 170.305 246.881 171.083 246.703 171.881C246.639 172.173 244.97 179.026 232.282 179.388H230.599Z" fill="black"/>
</g>
</g>
<g id="Group_33">
<path id="Vector_39" d="M245.24 210.721C245.112 210.721 244.982 210.704 244.853 210.67C244.761 210.646 239.894 209.399 231.965 209.719L230.932 209.72C222.859 209.401 218.034 210.657 217.986 210.669C217.181 210.884 216.364 210.407 216.15 209.606C215.937 208.805 216.413 207.983 217.213 207.77C217.426 207.713 222.528 206.387 230.992 206.72L231.905 206.719C240.31 206.382 245.411 207.712 245.625 207.77C246.425 207.983 246.9 208.805 246.688 209.606C246.509 210.279 245.903 210.721 245.24 210.721Z" fill="black"/>
</g>
</g>
</g>
<g id="parts">
<path id="stomach" d="M230.981 487.601C232.969 487.601 234.581 485.989 234.581 484.001C234.581 482.013 232.969 480.401 230.981 480.401C228.993 480.401 227.381 482.013 227.381 484.001C227.381 485.989 228.993 487.601 230.981 487.601Z" fill="#E16D79"/>
<path id="heart" d="M191.992 391.488C193.98 391.488 195.592 389.876 195.592 387.888C195.592 385.9 193.98 384.288 191.992 384.288C190.004 384.288 188.392 385.9 188.392 387.888C188.392 389.876 190.004 391.488 191.992 391.488Z" fill="#E16D79"/>
<path id="fingertip" d="M77.4399 875.988C79.4282 875.988 81.0399 874.376 81.0399 872.388C81.0399 870.4 79.4282 868.788 77.4399 868.788C75.4517 868.788 73.84 870.4 73.84 872.388C73.84 874.376 75.4517 875.988 77.4399 875.988Z" fill="#E16D79"/>
<path id="body" d="M231.581 522.7C233.569 522.7 235.181 521.088 235.181 519.1C235.181 517.112 233.569 515.5 231.581 515.5C229.593 515.5 227.981 517.112 227.981 519.1C227.981 521.088 229.593 522.7 231.581 522.7Z" fill="#E16D79"/>
<path id="toe" d="M102.587 1328.16C104.575 1328.16 106.187 1326.55 106.187 1324.56C106.187 1322.57 104.575 1320.96 102.587 1320.96C100.599 1320.96 98.9869 1322.57 98.9869 1324.56C98.9869 1326.55 100.599 1328.16 102.587 1328.16Z" fill="#E16D79"/>
<path id="spine" d="M230.08 551.501C232.068 551.501 233.68 549.889 233.68 547.901C233.68 545.913 232.068 544.301 230.08 544.301C228.092 544.301 226.48 545.913 226.48 547.901C226.48 549.889 228.092 551.501 230.08 551.501Z" fill="#E16D79"/>
<path id="wrist" d="M70.4899 729.096C72.4781 729.096 74.09 727.484 74.09 725.496C74.09 723.508 72.4781 721.896 70.4899 721.896C68.5016 721.896 66.8899 723.508 66.8899 725.496C66.8899 727.484 68.5016 729.096 70.4899 729.096Z" fill="#E16D79"/>
<path id="belly" d="M230.982 573.104C232.97 573.104 234.582 571.492 234.582 569.504C234.582 567.516 232.97 565.904 230.982 565.904C228.994 565.904 227.382 567.516 227.382 569.504C227.382 571.492 228.994 573.104 230.982 573.104Z" fill="#E16D79"/>
<path id="skin" d="M230.982 357.115C232.97 357.115 234.582 355.503 234.582 353.515C234.582 351.527 232.97 349.915 230.982 349.915C228.994 349.915 227.382 351.527 227.382 353.515C227.382 355.503 228.994 357.115 230.982 357.115Z" fill="#E16D79"/>
<path id="ankle" d="M162.775 1235.99C164.763 1235.99 166.375 1234.38 166.375 1232.39C166.375 1230.4 164.763 1228.79 162.775 1228.79C160.787 1228.79 159.175 1230.4 159.175 1232.39C159.175 1234.38 160.787 1235.99 162.775 1235.99Z" fill="#E16D79"/>
<path id="fingernail" d="M57.4419 882.656C59.4301 882.656 61.0419 881.044 61.0419 879.056C61.0419 877.068 59.4301 875.456 57.4419 875.456C55.4537 875.456 53.8419 877.068 53.8419 879.056C53.8419 881.044 55.4537 882.656 57.4419 882.656Z" fill="#E16D79"/>
<path id="thigh" d="M176.776 877.322C178.764 877.322 180.376 875.71 180.376 873.722C180.376 871.734 178.764 870.122 176.776 870.122C174.788 870.122 173.176 871.734 173.176 873.722C173.176 875.71 174.788 877.322 176.776 877.322Z" fill="#E16D79"/>
<path id="lap" d="M180.773 802.655C182.761 802.655 184.373 801.043 184.373 799.055C184.373 797.067 182.761 795.455 180.773 795.455C178.785 795.455 177.173 797.067 177.173 799.055C177.173 801.043 178.785 802.655 180.773 802.655Z" fill="#E16D79"/>
<path id="nail" d="M36.4399 872.988C38.4282 872.988 40.0399 871.376 40.0399 869.388C40.0399 867.4 38.4282 865.788 36.4399 865.788C34.4517 865.788 32.84 867.4 32.84 869.388C32.84 871.376 34.4517 872.988 36.4399 872.988Z" fill="#E16D79"/>
<path id="waist" d="M178.375 530.588C180.363 530.588 181.975 528.976 181.975 526.988C181.975 525 180.363 523.388 178.375 523.388C176.387 523.388 174.775 525 174.775 526.988C174.775 528.976 176.387 530.588 178.375 530.588Z" fill="#E16D79"/>
<path id="hip" d="M155.775 596.988C157.763 596.988 159.375 595.376 159.375 593.388C159.375 591.4 157.763 589.788 155.775 589.788C153.787 589.788 152.175 591.4 152.175 593.388C152.175 595.376 153.787 596.988 155.775 596.988Z" fill="#E16D79"/>
<path id="breast" d="M172.992 417.488C174.98 417.488 176.592 415.876 176.592 413.888C176.592 411.9 174.98 410.288 172.992 410.288C171.004 410.288 169.392 411.9 169.392 413.888C169.392 415.876 171.004 417.488 172.992 417.488Z" fill="#E16D79"/>
<path id="leg" d="M288.375 829.388C290.363 829.388 291.975 827.776 291.975 825.788C291.975 823.8 290.363 822.188 288.375 822.188C286.387 822.188 284.775 823.8 284.775 825.788C284.775 827.776 286.387 829.388 288.375 829.388Z" fill="#4166B0"/>
<path id="shoulder" d="M354.375 328.388C356.363 328.388 357.975 326.776 357.975 324.788C357.975 322.8 356.363 321.188 354.375 321.188C352.387 321.188 350.775 322.8 350.775 324.788C350.775 326.776 352.387 328.388 354.375 328.388Z" fill="#4166B0"/>
<path id="arm" d="M368.775 479.988C370.763 479.988 372.375 478.376 372.375 476.388C372.375 474.4 370.763 472.788 368.775 472.788C366.787 472.788 365.175 474.4 365.175 476.388C365.175 478.376 366.787 479.988 368.775 479.988Z" fill="#4166B0"/>
<path id="bone" d="M242.375 562.388C244.363 562.388 245.975 560.776 245.975 558.788C245.975 556.8 244.363 555.188 242.375 555.188C240.387 555.188 238.775 556.8 238.775 558.788C238.775 560.776 240.387 562.388 242.375 562.388Z" fill="#4166B0"/>
<path id="palm" d="M398.375 798.388C400.363 798.388 401.975 796.776 401.975 794.788C401.975 792.8 400.363 791.188 398.375 791.188C396.387 791.188 394.775 792.8 394.775 794.788C394.775 796.776 396.387 798.388 398.375 798.388Z" fill="#4166B0"/>
<path id="knee" d="M292.375 989.388C294.363 989.388 295.975 987.776 295.975 985.788C295.975 983.8 294.363 982.188 292.375 982.188C290.387 982.188 288.775 983.8 288.775 985.788C288.775 987.776 290.387 989.388 292.375 989.388Z" fill="#4166B0"/>
<path id="elbow" d="M380.775 557.988C382.763 557.988 384.375 556.376 384.375 554.388C384.375 552.4 382.763 550.788 380.775 550.788C378.787 550.788 377.175 552.4 377.175 554.388C377.175 556.376 378.787 557.988 380.775 557.988Z" fill="#4166B0"/>
<path id="hand" d="M390.775 779.988C392.763 779.988 394.375 778.376 394.375 776.388C394.375 774.4 392.763 772.788 390.775 772.788C388.787 772.788 387.175 774.4 387.175 776.388C387.175 778.376 388.787 779.988 390.775 779.988Z" fill="#4166B0"/>
<path id="foot" d="M339.375 1286.59C341.363 1286.59 342.975 1284.98 342.975 1282.99C342.975 1281 341.363 1279.39 339.375 1279.39C337.387 1279.39 335.775 1281 335.775 1282.99C335.775 1284.98 337.387 1286.59 339.375 1286.59Z" fill="#4166B0"/>
<path id="lung" d="M279.576 431.505C281.564 431.505 283.176 429.893 283.176 427.905C283.176 425.917 281.564 424.305 279.576 424.305C277.588 424.305 275.976 425.917 275.976 427.905C275.976 429.893 277.588 431.505 279.576 431.505Z" fill="#4166B0"/>
<path id="ass" d="M319.473 679.593C321.461 679.593 323.073 677.981 323.073 675.993C323.073 674.005 321.461 672.393 319.473 672.393C317.485 672.393 315.873 674.005 315.873 675.993C315.873 677.981 317.485 679.593 319.473 679.593Z" fill="#4166B0"/>
<path id="rib" d="M283.475 501.102C285.463 501.102 287.075 499.49 287.075 497.502C287.075 495.514 285.463 493.902 283.475 493.902C281.487 493.902 279.875 495.514 279.875 497.502C279.875 499.49 281.487 501.102 283.475 501.102Z" fill="#4166B0"/>
<path id="forearm" d="M385.47 652.594C387.458 652.594 389.07 650.982 389.07 648.994C389.07 647.006 387.458 645.394 385.47 645.394C383.482 645.394 381.87 647.006 381.87 648.994C381.87 650.982 383.482 652.594 385.47 652.594Z" fill="#4166B0"/>
<path id="knuckle" d="M430.468 825.085C432.456 825.085 434.068 823.473 434.068 821.485C434.068 819.497 432.456 817.885 430.468 817.885C428.48 817.885 426.868 819.497 426.868 821.485C426.868 823.473 428.48 825.085 430.468 825.085Z" fill="#4166B0"/>
<path id="chest" d="M269.675 393.106C271.663 393.106 273.275 391.494 273.275 389.506C273.275 387.518 271.663 385.906 269.675 385.906C267.687 385.906 266.075 387.518 266.075 389.506C266.075 391.494 267.687 393.106 269.675 393.106Z" fill="#4166B0"/>
<path id="thumb" d="M426.568 776.188C428.556 776.188 430.168 774.576 430.168 772.588C430.168 770.6 428.556 768.988 426.568 768.988C424.58 768.988 422.968 770.6 422.968 772.588C422.968 774.576 424.58 776.188 426.568 776.188Z" fill="#4166B0"/>
<path id="fist" d="M408.569 807.986C410.557 807.986 412.169 806.374 412.169 804.386C412.169 802.398 410.557 800.786 408.569 800.786C406.581 800.786 404.969 802.398 404.969 804.386C404.969 806.374 406.581 807.986 408.569 807.986Z" fill="#4166B0"/>
<path id="gut" d="M245.677 504.101C247.665 504.101 249.277 502.489 249.277 500.501C249.277 498.513 247.665 496.901 245.677 496.901C243.689 496.901 242.077 498.513 242.077 500.501C242.077 502.489 243.689 504.101 245.677 504.101Z" fill="#4166B0"/>
<path id="ball" d="M234.978 709.591C236.966 709.591 238.578 707.979 238.578 705.991C238.578 704.003 236.966 702.391 234.978 702.391C232.99 702.391 231.378 704.003 231.378 705.991C231.378 707.979 232.99 709.591 234.978 709.591Z" fill="#4166B0"/>
<path id="member" d="M234.812 694.426C236.8 694.426 238.412 692.814 238.412 690.826C238.412 688.838 236.8 687.226 234.812 687.226C232.824 687.226 231.212 688.838 231.212 690.826C231.212 692.814 232.824 694.426 234.812 694.426Z" fill="#4166B0"/>
<path id="back" d="M316.474 562.597C318.462 562.597 320.074 560.985 320.074 558.997C320.074 557.009 318.462 555.397 316.474 555.397C314.486 555.397 312.874 557.009 312.874 558.997C312.874 560.985 314.486 562.597 316.474 562.597Z" fill="#4166B0"/>
<path id="neck" d="M253.151 251.114C253.522 251.114 253.822 250.814 253.822 250.445C253.822 250.075 253.522 249.776 253.151 249.776C252.781 249.776 252.48 250.075 252.48 250.445C252.48 250.814 252.781 251.114 253.151 251.114Z" fill="#4267B1"/>
<path id="mouth" d="M238.613 203.732C238.984 203.732 239.284 203.433 239.284 203.063C239.284 202.694 238.984 202.395 238.613 202.395C238.243 202.395 237.943 202.694 237.943 203.063C237.943 203.433 238.243 203.732 238.613 203.732Z" fill="#4267B1"/>
<path id="throat" d="M230.785 254.458C231.156 254.458 231.456 254.159 231.456 253.789C231.456 253.42 231.156 253.121 230.785 253.121C230.415 253.121 230.114 253.42 230.114 253.789C230.114 254.159 230.415 254.458 230.785 254.458Z" fill="#4267B1"/>
<path id="eyebrow" d="M268.248 107.297C268.618 107.297 268.919 106.998 268.919 106.628C268.919 106.259 268.618 105.959 268.248 105.959C267.877 105.959 267.577 106.259 267.577 106.628C267.577 106.998 267.877 107.297 268.248 107.297Z" fill="#4267B1"/>
<path id="nose" d="M232.463 160.81C232.833 160.81 233.134 160.511 233.134 160.141C233.134 159.772 232.833 159.473 232.463 159.473C232.092 159.473 231.792 159.772 231.792 160.141C231.792 160.511 232.092 160.81 232.463 160.81Z" fill="#4267B1"/>
<path id="head" d="M233.581 51.5542C233.952 51.5542 234.252 51.2547 234.252 50.8853C234.252 50.5159 233.952 50.2165 233.581 50.2165C233.211 50.2165 232.91 50.5159 232.91 50.8853C232.91 51.2547 233.211 51.5542 233.581 51.5542Z" fill="#4267B1"/>
<path id="ear_2" d="M319.689 165.268C320.059 165.268 320.36 164.969 320.36 164.6C320.36 164.23 320.059 163.931 319.689 163.931C319.318 163.931 319.018 164.23 319.018 164.6C319.018 164.969 319.318 165.268 319.689 165.268Z" fill="#4267B1"/>
<path id="tooth" d="M238.054 212.092C238.425 212.092 238.725 211.793 238.725 211.424C238.725 211.054 238.425 210.755 238.054 210.755C237.683 210.755 237.383 211.054 237.383 211.424C237.383 211.793 237.683 212.092 238.054 212.092Z" fill="#4267B1"/>
<path id="forehead" d="M247 81.0966C247.371 81.0966 247.671 80.7972 247.671 80.4278C247.671 80.0584 247.371 79.7589 247 79.7589C246.63 79.7589 246.329 80.0584 246.329 80.4278C246.329 80.7972 246.63 81.0966 247 81.0966Z" fill="#4267B1"/>
<path id="brow" d="M262.656 100.049C263.027 100.049 263.327 99.7499 263.327 99.3805C263.327 99.0111 263.027 98.7117 262.656 98.7117C262.286 98.7117 261.985 99.0111 261.985 99.3805C261.985 99.7499 262.286 100.049 262.656 100.049Z" fill="#4267B1"/>
<path id="nostril" d="M241.52 177.978C241.891 177.978 242.191 177.678 242.191 177.309C242.191 176.94 241.891 176.64 241.52 176.64C241.15 176.64 240.85 176.94 240.85 177.309C240.85 177.678 241.15 177.978 241.52 177.978Z" fill="#4267B1"/>
<path id="pupil" d="M267.353 125.691C267.723 125.691 268.024 125.391 268.024 125.022C268.024 124.653 267.723 124.353 267.353 124.353C266.982 124.353 266.682 124.653 266.682 125.022C266.682 125.391 266.982 125.691 267.353 125.691Z" fill="#4267B1"/>
<path id="brain" d="M252.033 44.8638C252.403 44.8638 252.704 44.5644 252.704 44.195C252.704 43.8256 252.403 43.5262 252.033 43.5262C251.662 43.5262 251.362 43.8256 251.362 44.195C251.362 44.5644 251.662 44.8638 252.033 44.8638Z" fill="#4267B1"/>
<path id="jaw" d="M283.344 211.535C283.715 211.535 284.015 211.236 284.015 210.866C284.015 210.497 283.715 210.197 283.344 210.197C282.974 210.197 282.673 210.497 282.673 210.866C282.673 211.236 282.974 211.535 283.344 211.535Z" fill="#4267B1"/>
<path id="collar" d="M260.979 292.362C261.349 292.362 261.65 292.063 261.65 291.693C261.65 291.324 261.349 291.025 260.979 291.025C260.608 291.025 260.308 291.324 260.308 291.693C260.308 292.063 260.608 292.362 260.979 292.362Z" fill="#4267B1"/>
<path id="grin" d="M253.71 199.271C254.081 199.271 254.381 198.972 254.381 198.603C254.381 198.233 254.081 197.934 253.71 197.934C253.34 197.934 253.039 198.233 253.039 198.603C253.039 198.972 253.34 199.271 253.71 199.271Z" fill="#4267B1"/>
<path id="hair" d="M170.571 64.8879C170.941 64.8879 171.241 64.5884 171.241 64.219C171.241 63.8496 170.941 63.5502 170.571 63.5502C170.2 63.5502 169.9 63.8496 169.9 64.219C169.9 64.5884 170.2 64.8879 170.571 64.8879Z" fill="#E16D7A"/>
<path id="cheek" d="M192.802 144.681C193.172 144.681 193.473 144.382 193.473 144.012C193.473 143.643 193.172 143.343 192.802 143.343C192.431 143.343 192.131 143.643 192.131 144.012C192.131 144.382 192.431 144.681 192.802 144.681Z" fill="#E16D7A"/>
<path id="eyelid" d="M199.063 113.914C199.434 113.914 199.734 113.615 199.734 113.245C199.734 112.876 199.434 112.576 199.063 112.576C198.693 112.576 198.393 112.876 198.393 113.245C198.393 113.615 198.693 113.914 199.063 113.914Z" fill="#E16D7A"/>
<path id="smile" d="M215.165 208.593C215.536 208.593 215.836 208.294 215.836 207.924C215.836 207.555 215.536 207.255 215.165 207.255C214.795 207.255 214.494 207.555 214.494 207.924C214.494 208.294 214.795 208.593 215.165 208.593Z" fill="#E16D7A"/>
<path id="lip" d="M223.365 203.391C223.736 203.391 224.036 203.092 224.036 202.722C224.036 202.353 223.736 202.053 223.365 202.053C222.995 202.053 222.694 202.353 222.694 202.722C222.694 203.092 222.995 203.391 223.365 203.391Z" fill="#E16D7A"/>
<path id="eye" d="M189 128.629C189.37 128.629 189.671 128.329 189.671 127.96C189.671 127.59 189.37 127.291 189 127.291C188.629 127.291 188.329 127.59 188.329 127.96C188.329 128.329 188.629 128.629 189 128.629Z" fill="#E16D7A"/>
<path id="face_2" d="M193.92 176.265C194.291 176.265 194.591 175.966 194.591 175.597C194.591 175.227 194.291 174.928 193.92 174.928C193.55 174.928 193.249 175.227 193.249 175.597C193.249 175.966 193.55 176.265 193.92 176.265Z" fill="#E16D7A"/>
</g>
<path id="click-circle" opacity="0" d="M231.42 281.785C308.133 281.785 370.321 219.597 370.321 142.884C370.321 66.1711 308.133 3.98297 231.42 3.98297C154.707 3.98297 92.5189 66.1711 92.5189 142.884C92.5189 219.597 154.707 281.785 231.42 281.785Z" fill="white"/>
</g>
</svg>
