<svg version="1.1" xmlns="http://www.w3.org/2000/svg" xmlns:xlink="http://www.w3.org/1999/xlink" x="0px" y="0px"
	 viewBox="0 0 1505.377 3612.904" enable-background="new 0 0 1505.377 3612.904"
	 xml:space="preserve">

<g id="text">
	<g>
		<path fill="none" d="M155.762,375.46c82-82,714-158,1193.885,96.681"/>
		<text transform="matrix(0.939 -0.3439 0.3439 0.939 196.3242 350.9678)"><tspan x="0" y="0" font-family="'LyonDisplay-Regular'" font-size="85">I</tspan><tspan x="27.362" y="0.047" font-family="'LyonDisplay-Regular'" font-size="85" rotate="3.509">f</tspan><tspan x="53.586" y="1.77" font-family="'LyonDisplay-Regular'" font-size="85" rotate="5.45"> </tspan><tspan x="66.585" y="2.457" font-family="'LyonDisplay-Regular'" font-size="85" rotate="8.242">w</tspan><tspan x="126.336" y="11.411" font-family="'LyonDisplay-Regular'" font-size="85" rotate="11.11">e</tspan><tspan x="165.944" y="19.344" font-family="'LyonDisplay-Regular'" font-size="85" rotate="12.385"> </tspan><tspan x="179.073" y="22.129" font-family="'LyonDisplay-Regular'" font-size="85" rotate="13.422">s</tspan><tspan x="212.646" y="30.106" font-family="'LyonDisplay-Regular'" font-size="85" rotate="14.903">e</tspan><tspan x="251.632" y="40.484" font-family="'LyonDisplay-Regular'" font-size="85" rotate="16.363">e</tspan><tspan x="290.44" y="51.991" font-family="'LyonDisplay-Regular'" font-size="85" rotate="17.284"> </tspan><tspan x="303.384" y="55.98" font-family="'LyonDisplay-Regular'" font-size="85" rotate="17.948">f</tspan><tspan x="328.602" y="64.037" font-family="'LyonDisplay-Regular'" font-size="85" rotate="19.124">u</tspan><tspan x="372.956" y="79.537" font-family="'LyonDisplay-Regular'" font-size="85" rotate="20.208">l</tspan><tspan x="394.415" y="87.434" font-family="'LyonDisplay-Regular'" font-size="85" rotate="20.906">l</tspan><tspan x="415.738" y="95.504" font-family="'LyonDisplay-Regular'" font-size="85" rotate="21.85">y</tspan><tspan x="452.595" y="110.38" font-family="'LyonDisplay-Regular'" font-size="85" rotate="22.647"> </tspan><tspan x="465.092" y="115.447" font-family="'LyonDisplay-Regular'" font-size="85" rotate="23.556">h</tspan><tspan x="508.397" y="134.324" font-family="'LyonDisplay-Regular'" font-size="85" rotate="24.961">u</tspan><tspan x="550.94" y="153.897" font-family="'LyonDisplay-Regular'" font-size="85" rotate="26.755">m</tspan><tspan x="615.343" y="186.629" font-family="'LyonDisplay-Regular'" font-size="85" rotate="28.472">a</tspan><tspan x="650.188" y="205.473" font-family="'LyonDisplay-Regular'" font-size="85" rotate="29.83">n</tspan><tspan x="690.751" y="228.89" font-family="'LyonDisplay-Regular'" font-size="85" rotate="30.797"> </tspan><tspan x="702.389" y="235.709" font-family="'LyonDisplay-Regular'" font-size="85" rotate="31.665">c</tspan><tspan x="736.032" y="256.394" font-family="'LyonDisplay-Regular'" font-size="85" rotate="33.115">h</tspan><tspan x="775.568" y="282.232" font-family="'LyonDisplay-Regular'" font-size="85" rotate="34.613">a</tspan><tspan x="808.173" y="304.788" font-family="'LyonDisplay-Regular'" font-size="85" rotate="35.863">r</tspan><tspan x="833.034" y="322.691" font-family="'LyonDisplay-Regular'" font-size="85" rotate="37.149">a</tspan><tspan x="864.59" y="346.591" font-family="'LyonDisplay-Regular'" font-size="85" rotate="38.644">c</tspan><tspan x="895.414" y="371.316" font-family="'LyonDisplay-Regular'" font-size="85" rotate="39.952">t</tspan><tspan x="916.579" y="388.938" font-family="'LyonDisplay-Regular'" font-size="85" rotate="41.318">e</tspan><tspan x="946.849" y="415.621" font-family="'LyonDisplay-Regular'" font-size="85" rotate="42.79">r</tspan><tspan x="969.333" y="436.394" font-family="'LyonDisplay-Regular'" font-size="85" rotate="44.185">s</tspan></text>
		<path fill="none" d="M291.762,557.46c0,0,476-174,966,92"/>
		<text transform="matrix(0.9612 -0.2758 0.2758 0.9612 313.8896 550.2065)"><tspan x="0" y="0" font-family="'LyonDisplay-Regular'" font-size="85">i</tspan><tspan x="21.615" y="-0.208" font-family="'LyonDisplay-Regular'" font-size="85" rotate="2.038">n</tspan><tspan x="68.273" y="1.679" font-family="'LyonDisplay-Regular'" font-size="85" rotate="3.584"> </tspan><tspan x="81.584" y="2.306" font-family="'LyonDisplay-Regular'" font-size="85" rotate="5.01">o</tspan><tspan x="127.547" y="6.327" font-family="'LyonDisplay-Regular'" font-size="85" rotate="7.116">u</tspan><tspan x="174.02" y="12.247" font-family="'LyonDisplay-Regular'" font-size="85" rotate="8.814">r</tspan><tspan x="204.365" y="17.023" font-family="'LyonDisplay-Regular'" font-size="85" rotate="9.771"> </tspan><tspan x="217.484" y="18.795" font-family="'LyonDisplay-Regular'" font-size="85" rotate="11.609">m</tspan><tspan x="288.038" y="33.62" font-family="'LyonDisplay-Regular'" font-size="85" rotate="14.022">e</tspan><tspan x="327.099" y="43.312" font-family="'LyonDisplay-Regular'" font-size="85" rotate="15.9">d</tspan><tspan x="371.979" y="56.259" font-family="'LyonDisplay-Regular'" font-size="85" rotate="17.391">i</tspan><tspan x="392.796" y="62.664" font-family="'LyonDisplay-Regular'" font-size="85" rotate="18.739">a</tspan><tspan x="430.299" y="75.526" font-family="'LyonDisplay-Regular'" font-size="85" rotate="19.912"> </tspan><tspan x="442.894" y="79.717" font-family="'LyonDisplay-Regular'" font-size="85" rotate="21.563">w</tspan><tspan x="499.146" y="102.085" font-family="'LyonDisplay-Regular'" font-size="85" rotate="23.994">h</tspan><tspan x="542.167" y="121.231" font-family="'LyonDisplay-Regular'" font-size="85" rotate="26.13">o</tspan><tspan x="583.665" y="141.803" font-family="'LyonDisplay-Regular'" font-size="85" rotate="27.51"> </tspan><tspan x="595.591" y="147.851" font-family="'LyonDisplay-Regular'" font-size="85" rotate="28.744">a</tspan><tspan x="630.235" y="166.918" font-family="'LyonDisplay-Regular'" font-size="85" rotate="30.385">r</tspan><tspan x="656.608" y="182.292" font-family="'LyonDisplay-Regular'" font-size="85" rotate="32.054">e</tspan><tspan x="690.77" y="203.856" font-family="'LyonDisplay-Regular'" font-size="85" rotate="33.326"> </tspan><tspan x="702.099" y="210.67" font-family="'LyonDisplay-Regular'" font-size="85" rotate="35.352">m</tspan><tspan x="760.635" y="252.567" font-family="'LyonDisplay-Regular'" font-size="85" rotate="38.157">o</tspan><tspan x="796.879" y="281.194" font-family="'LyonDisplay-Regular'" font-size="85" rotate="39.978">r</tspan><tspan x="820.34" y="300.763" font-family="'LyonDisplay-Regular'" font-size="85" rotate="41.655">e</tspan></text>
		<path fill="none" d="M197.762,773.46c0,0,454-158,894,62"/>
		<text transform="matrix(0.9642 -0.2652 0.2652 0.9642 218.3921 766.9087)"><tspan x="0" y="0" font-family="'LyonDisplay-Regular'" font-size="85">t</tspan><tspan x="27.369" y="-0.161" font-family="'LyonDisplay-Regular'" font-size="85" rotate="2.032">h</tspan><tspan x="74.443" y="1.582" font-family="'LyonDisplay-Regular'" font-size="85" rotate="4.059">a</tspan><tspan x="113.841" y="4.317" font-family="'LyonDisplay-Regular'" font-size="85" rotate="5.934">n</tspan><tspan x="160.326" y="9.332" font-family="'LyonDisplay-Regular'" font-size="85" rotate="7.204"> </tspan><tspan x="173.733" y="11" font-family="'LyonDisplay-Regular'" font-size="85" rotate="7.938">j</tspan><tspan x="194.894" y="13.785" font-family="'LyonDisplay-Regular'" font-size="85" rotate="9.361">u</tspan><tspan x="241.087" y="21.487" font-family="'LyonDisplay-Regular'" font-size="85" rotate="11.057">s</tspan><tspan x="274.962" y="28.142" font-family="'LyonDisplay-Regular'" font-size="85" rotate="12.363">t</tspan><tspan x="301.991" y="34.12" font-family="'LyonDisplay-Regular'" font-size="85" rotate="13.235"> </tspan>
		<tspan x="315.038" y="36.99" font-family="'LyonDisplay-Regular'" font-size="85" rotate="14.525">f</tspan>
		<tspan x="340.038" y="43.99" font-family="'LyonDisplay-Regular'" font-size="85" rotate="15.525">l</tspan>
		<tspan x="360.336" y="48.778" font-family="'LyonDisplay-Regular'" font-size="85" rotate="16.402">a</tspan><tspan x="398.281" y="60.023" font-family="'LyonDisplay-Regular'" font-size="85" rotate="17.889">t</tspan><tspan x="424.575" y="68.568" font-family="'LyonDisplay-Regular'" font-size="85" rotate="18.814"> </tspan><tspan x="437.308" y="72.796" font-family="'LyonDisplay-Regular'" font-size="85" rotate="19.906">s</tspan><tspan x="469.724" y="84.575" font-family="'LyonDisplay-Regular'" font-size="85" rotate="21.339">t</tspan><tspan x="495.365" y="94.489" font-family="'LyonDisplay-Regular'" font-size="85" rotate="22.935">e</tspan><tspan x="532.444" y="110.249" font-family="'LyonDisplay-Regular'" font-size="85" rotate="24.634">r</tspan><tspan x="560.213" y="122.892" font-family="'LyonDisplay-Regular'" font-size="85" rotate="26.366">e</tspan><tspan x="596.263" y="140.684" font-family="'LyonDisplay-Regular'" font-size="85" rotate="28.52">o</tspan><tspan x="636.78" y="162.866" font-family="'LyonDisplay-Regular'" font-size="85" rotate="30.393">t</tspan><tspan x="660.51" y="176.67" font-family="'LyonDisplay-Regular'" font-size="85" rotate="32.123">y</tspan><tspan x="693.928" y="197.56" font-family="'LyonDisplay-Regular'" font-size="85" rotate="34.364">p</tspan><tspan x="731.882" y="223.568" font-family="'LyonDisplay-Regular'" font-size="85" rotate="36.655">e</tspan><tspan x="764.116" y="247.607" font-family="'LyonDisplay-Regular'" font-size="85" rotate="38.658">s</tspan><tspan x="790.988" y="269.211" font-family="'LyonDisplay-Regular'" font-size="85" rotate="40.155">,</tspan></text>
		<path fill="none" d="M410.552,909.184c0,0,84.008-33.004,210.021-6.001s240.024,30.004,261.026,15.002"/>
		<text transform="matrix(0.9896 -0.1437 0.1437 0.9896 443.3994 899.646)"><tspan x="0" y="0" font-family="'LyonDisplay-Regular'" font-size="75">p</tspan><tspan x="39.959" y="0.104" font-family="'LyonDisplay-Regular'" font-size="75" rotate="5.379">e</tspan><tspan x="74.836" y="3.521" font-family="'LyonDisplay-Regular'" font-size="75" rotate="9.453">r</tspan><tspan x="100.93" y="7.565" font-family="'LyonDisplay-Regular'" font-size="75" rotate="13.704">h</tspan><tspan x="140.78" y="17.393" font-family="'LyonDisplay-Regular'" font-size="75" rotate="18.231">a</tspan><tspan x="173.973" y="28.838" font-family="'LyonDisplay-Regular'" font-size="75" rotate="19.415">p</tspan><tspan x="213.67" y="42.73" font-family="'LyonDisplay-Regular'" font-size="75" rotate="17.654">s</tspan><tspan x="243.571" y="52.149" font-family="'LyonDisplay-Regular'" font-size="75" rotate="16.578"> </tspan><tspan x="255.614" y="55.786" font-family="'LyonDisplay-Regular'" font-size="75" rotate="15.623">t</tspan><tspan x="280.272" y="62.826" font-family="'LyonDisplay-Regular'" font-size="75" rotate="13.728">h</tspan><tspan x="322.55" y="73.092" font-family="'LyonDisplay-Regular'" font-size="75" rotate="10.965">e</tspan><tspan x="360.227" y="80.577" font-family="'LyonDisplay-Regular'" font-size="75" rotate="6.514">n</tspan></text>
	</g>
	<g>
		<path fill="none" d="M209.687,2012.888c0,0,27.696-29.966,270.289,17.307c346.156,67.454,413.07,50.517,499.746,59.271
			c198,20,204,56,204,56"/>
		<text transform="matrix(0.9985 -0.0548 0.0548 0.9985 241.1934 2004.4912)"><tspan x="0" y="0" font-family="'LyonDisplay-Regular'" font-size="75">i</tspan><tspan x="18.712" y="-0.037" font-family="'LyonDisplay-Regular'" font-size="75" rotate="3.658">t</tspan><tspan x="42.726" y="1.564" font-family="'LyonDisplay-Regular'" font-size="75" rotate="6.072">’</tspan><tspan x="62.148" y="3.633" font-family="'LyonDisplay-Regular'" font-size="75" rotate="7.696">l</tspan><tspan x="82.005" y="6.322" font-family="'LyonDisplay-Regular'" font-size="75" rotate="8.997">l</tspan><tspan x="101.876" y="9.501" font-family="'LyonDisplay-Regular'" font-size="75" rotate="9.864"> </tspan><tspan x="113.564" y="11.398" font-family="'LyonDisplay-Regular'" font-size="75" rotate="11.024">b</tspan><tspan x="152.286" y="18.98" font-family="'LyonDisplay-Regular'" font-size="75" rotate="12.366">e</tspan><tspan x="187.214" y="26.715" font-family="'LyonDisplay-Regular'" font-size="75" rotate="13.066"> </tspan><tspan x="198.866" y="29.355" font-family="'LyonDisplay-Regular'" font-size="75" rotate="13.679">e</tspan><tspan x="233.663" y="37.914" font-family="'LyonDisplay-Regular'" font-size="75" rotate="14.037">a</tspan><tspan x="267.777" y="46.438" font-family="'LyonDisplay-Regular'" font-size="75" rotate="13.709">s</tspan><tspan x="297.592" y="53.697" font-family="'LyonDisplay-Regular'" font-size="75" rotate="13.435">i</tspan><tspan x="316.485" y="58.237" font-family="'LyonDisplay-Regular'" font-size="75" rotate="13.104">e</tspan><tspan x="351.393" y="66.349" font-family="'LyonDisplay-Regular'" font-size="75" rotate="12.682">r</tspan><tspan x="377.983" y="72.315" font-family="'LyonDisplay-Regular'" font-size="75" rotate="12.392"> </tspan><tspan x="389.712" y="74.909" font-family="'LyonDisplay-Regular'" font-size="75" rotate="12.101">t</tspan><tspan x="413.632" y="80.085" font-family="'LyonDisplay-Regular'" font-size="75" rotate="11.519">o</tspan><tspan x="453.883" y="88.221" font-family="'LyonDisplay-Regular'" font-size="75" rotate="10.983"> </tspan><tspan x="465.608" y="90.552" font-family="'LyonDisplay-Regular'" font-size="75" rotate="10.452">v</tspan><tspan x="499.688" y="96.797" font-family="'LyonDisplay-Regular'" font-size="75" rotate="9.759">i</tspan><tspan x="518.725" y="100.136" font-family="'LyonDisplay-Regular'" font-size="75" rotate="8.953">e</tspan><tspan x="553.88" y="105.818" font-family="'LyonDisplay-Regular'" font-size="75" rotate="7.423">w</tspan><tspan x="607.122" y="112.531" font-family="'LyonDisplay-Regular'" font-size="75" rotate="6.185"> </tspan><tspan x="618.93" y="113.918" font-family="'LyonDisplay-Regular'" font-size="75" rotate="5.284">o</tspan><tspan x="659.802" y="117.574" font-family="'LyonDisplay-Regular'" font-size="75" rotate="4.949">u</tspan><tspan x="700.914" y="121.126" font-family="'LyonDisplay-Regular'" font-size="75" rotate="6.915">r</tspan><tspan x="727.526" y="124.414" font-family="'LyonDisplay-Regular'" font-size="75" rotate="9.259">s</tspan><tspan x="757.594" y="129.266" font-family="'LyonDisplay-Regular'" font-size="75" rotate="10.602">e</tspan><tspan x="792.582" y="135.896" font-family="'LyonDisplay-Regular'" font-size="75" rotate="12.031">l</tspan><tspan x="812.108" y="139.915" font-family="'LyonDisplay-Regular'" font-size="75" rotate="13.832">v</tspan><tspan x="845.243" y="147.958" font-family="'LyonDisplay-Regular'" font-size="75" rotate="17.139">e</tspan><tspan x="878.521" y="158.129" font-family="'LyonDisplay-Regular'" font-size="75" rotate="22.413">s</tspan></text>
		<path fill="none" d="M447.722,2217.466c0,0,26-20,192,6c194.646,30.486,250,2,336,54"/>
		<text transform="matrix(0.9994 0.034 -0.034 0.9994 484.3545 2209.2715)"><tspan x="0" y="0" font-family="'LyonDisplay-Regular'" font-size="75">—</tspan><tspan x="65.734" y="0.675" font-family="'LyonDisplay-Regular'" font-size="75" rotate="3.861">a</tspan><tspan x="100.537" y="3" font-family="'LyonDisplay-Regular'" font-size="75" rotate="5.694">n</tspan><tspan x="141.593" y="7.251" font-family="'LyonDisplay-Regular'" font-size="75" rotate="6.717">d</tspan><tspan x="182.678" y="11.963" font-family="'LyonDisplay-Regular'" font-size="75" rotate="5.712"> </tspan><tspan x="194.45" y="13.279" font-family="'LyonDisplay-Regular'" font-size="75" rotate="4.665">o</tspan><tspan x="235.219" y="16.512" font-family="'LyonDisplay-Regular'" font-size="75" rotate="3.345">t</tspan><tspan x="259.487" y="18.021" font-family="'LyonDisplay-Regular'" font-size="75" rotate="2.087">h</tspan><tspan x="301.268" y="19.474" font-family="'LyonDisplay-Regular'" font-size="75" rotate="1.067">e</tspan><tspan x="337.11" y="20.087" font-family="'LyonDisplay-Regular'" font-size="75" rotate="1.195">r</tspan><tspan x="364.034" y="20.536" font-family="'LyonDisplay-Regular'" font-size="75" rotate="2.861">s</tspan><tspan x="393.323" y="20.14" font-family="'LyonDisplay-Regular'" font-size="75" rotate="10.88">—</tspan></text>
		<path fill="none" d="M233.722,2399.466c0,0,62.978-39.005,282,12c219.021,51.005,459.992,89.004,544,50"/>
		<text transform="matrix(0.9999 -0.014 0.014 0.9999 299.4146 2385.4961)"><tspan x="0" y="0" font-family="'LyonDisplay-Regular'" font-size="75">a</tspan><tspan x="34.472" y="0.096" font-family="'LyonDisplay-Regular'" font-size="75" rotate="3.635">s</tspan><tspan x="64.73" y="2.175" font-family="'LyonDisplay-Regular'" font-size="75" rotate="5.534"> </tspan><tspan x="76.455" y="3.24" font-family="'LyonDisplay-Regular'" font-size="75" rotate="6.92">f</tspan><tspan x="99.463" y="5.87" font-family="'LyonDisplay-Regular'" font-size="75" rotate="9.1">u</tspan><tspan x="140.261" y="12.577" font-family="'LyonDisplay-Regular'" font-size="75" rotate="10.848">l</tspan><tspan x="160.002" y="16.36" font-family="'LyonDisplay-Regular'" font-size="75" rotate="11.859">l</tspan><tspan x="179.642" y="20.406" font-family="'LyonDisplay-Regular'" font-size="75" rotate="13.104">y</tspan><tspan x="213.819" y="28.483" font-family="'LyonDisplay-Regular'" font-size="75" rotate="13.821"> </tspan><tspan x="225.44" y="31.396" font-family="'LyonDisplay-Regular'" font-size="75" rotate="13.493">h</tspan><tspan x="266.166" y="41.17" font-family="'LyonDisplay-Regular'" font-size="75" rotate="12.894">u</tspan><tspan x="306.618" y="50.522" font-family="'LyonDisplay-Regular'" font-size="75" rotate="12.066">m</tspan><tspan x="369.165" y="63.788" font-family="'LyonDisplay-Regular'" font-size="75" rotate="11.183">a</tspan><tspan x="403.581" y="70.621" font-family="'LyonDisplay-Regular'" font-size="75" rotate="10.406">n</tspan><tspan x="444.329" y="78.027" font-family="'LyonDisplay-Regular'" font-size="75" rotate="9.798"> </tspan><tspan x="456.061" y="80.143" font-family="'LyonDisplay-Regular'" font-size="75" rotate="9.129">p</tspan><tspan x="496.4" y="86.613" font-family="'LyonDisplay-Regular'" font-size="75" rotate="8.009">e</tspan><tspan x="531.688" y="91.629" font-family="'LyonDisplay-Regular'" font-size="75" rotate="6.645">o</tspan><tspan x="572.87" y="96.454" font-family="'LyonDisplay-Regular'" font-size="75" rotate="4.759">p</tspan><tspan x="614.869" y="99.783" font-family="'LyonDisplay-Regular'" font-size="75" rotate="2.867">l</tspan><tspan x="636.439" y="101.023" font-family="'LyonDisplay-Regular'" font-size="75" rotate="0.566">e</tspan></text>
		<path fill="none" d="M397.732,2645.465c0,0,138.311-44.875,368-2c300,56,253.989,37.996,356,80"/>
		<text transform="matrix(0.9895 -0.1448 0.1448 0.9895 438.063 2635.7813)"><tspan x="0" y="0" font-family="'LyonDisplay-Regular'" font-size="75">d</tspan><tspan x="40.856" y="0.086" font-family="'LyonDisplay-Regular'" font-size="75" rotate="3.093">e</tspan><tspan x="76.236" y="2.052" font-family="'LyonDisplay-Regular'" font-size="75" rotate="5.447">s</tspan><tspan x="106.376" y="4.874" font-family="'LyonDisplay-Regular'" font-size="75" rotate="7.616">e</tspan><tspan x="141.577" y="9.653" font-family="'LyonDisplay-Regular'" font-size="75" rotate="9.55">r</tspan><tspan x="168.122" y="14.057" font-family="'LyonDisplay-Regular'" font-size="75" rotate="11.355">v</tspan><tspan x="201.888" y="20.937" font-family="'LyonDisplay-Regular'" font-size="75" rotate="12.87">i</tspan><tspan x="220.605" y="25.05" font-family="'LyonDisplay-Regular'" font-size="75" rotate="14.514">n</tspan><tspan x="260.398" y="35.387" font-family="'LyonDisplay-Regular'" font-size="75" rotate="16.548">g</tspan><tspan x="295.754" y="46.032" font-family="'LyonDisplay-Regular'" font-size="75" rotate="17.777"> </tspan><tspan x="307.071" y="49.56" font-family="'LyonDisplay-Regular'" font-size="75" rotate="18.862">o</tspan><tspan x="345.999" y="62.857" font-family="'LyonDisplay-Regular'" font-size="75" rotate="18.753">f</tspan><tspan x="368.367" y="70.447" font-family="'LyonDisplay-Regular'" font-size="75" rotate="18.677"> </tspan><tspan x="379.771" y="74.314" font-family="'LyonDisplay-Regular'" font-size="75" rotate="18.569">e</tspan><tspan x="413.779" y="85.77" font-family="'LyonDisplay-Regular'" font-size="75" rotate="18.333">m</tspan><tspan x="474.613" y="105.897" font-family="'LyonDisplay-Regular'" font-size="75" rotate="18.138">p</tspan><tspan x="513.639" y="118.656" font-family="'LyonDisplay-Regular'" font-size="75" rotate="18.267">a</tspan><tspan x="546.949" y="129.635" font-family="'LyonDisplay-Regular'" font-size="75" rotate="19.114">t</tspan><tspan x="569.642" y="136.972" font-family="'LyonDisplay-Regular'" font-size="75" rotate="22.726">h</tspan><tspan x="607.011" y="152.94" font-family="'LyonDisplay-Regular'" font-size="75" rotate="29.151">y</tspan></text>
		<path fill="none" d="M347.722,3101.473c0,0,408,268,728-26"/>
		<text transform="matrix(0.9065 0.4223 -0.4223 0.9065 405.9063 3133.8564)"><tspan x="0" y="0" font-family="'LyonDisplay-Regular'" font-size="75">a</tspan><tspan x="36.751" y="0.037" font-family="'LyonDisplay-Regular'" font-size="75" rotate="-2.736">n</tspan><tspan x="79.889" y="-2.063" font-family="'LyonDisplay-Regular'" font-size="75" rotate="-5.725">d</tspan><tspan x="122.272" y="-6.585" font-family="'LyonDisplay-Regular'" font-size="75" rotate="-7.717"> </tspan><tspan x="135.415" y="-8.113" font-family="'LyonDisplay-Regular'" font-size="75" rotate="-9.79">u</tspan><tspan x="178.322" y="-15.562" font-family="'LyonDisplay-Regular'" font-size="75" rotate="-13.177">n</tspan><tspan x="220.702" y="-25.53" font-family="'LyonDisplay-Regular'" font-size="75" rotate="-16.813">d</tspan><tspan x="262.359" y="-38.262" font-family="'LyonDisplay-Regular'" font-size="75" rotate="-20.465">e</tspan><tspan x="297.606" y="-51.587" font-family="'LyonDisplay-Regular'" font-size="75" rotate="-23.644">r</tspan><tspan x="324.146" y="-63.199" font-family="'LyonDisplay-Regular'" font-size="75" rotate="-26.718">s</tspan><tspan x="353.064" y="-77.89" font-family="'LyonDisplay-Regular'" font-size="75" rotate="-29.788">t</tspan><tspan x="376.133" y="-90.971" font-family="'LyonDisplay-Regular'" font-size="75" rotate="-33.247">a</tspan><tspan x="407.742" y="-111.651" font-family="'LyonDisplay-Regular'" font-size="75" rotate="-37.858">n</tspan><tspan x="442.737" y="-139.006" font-family="'LyonDisplay-Regular'" font-size="75" rotate="-43.005">d</tspan><tspan x="474.333" y="-169.072" font-family="'LyonDisplay-Regular'" font-size="75" rotate="-46.823">i</tspan><tspan x="489.337" y="-184.633" font-family="'LyonDisplay-Regular'" font-size="75" rotate="-50.628">n</tspan><tspan x="517.216" y="-218.942" font-family="'LyonDisplay-Regular'" font-size="75" rotate="-55.437">g</tspan><tspan x="539.058" y="-251.219" font-family="'LyonDisplay-Regular'" font-size="75" rotate="-58.713">.</tspan></text>
	</g>
</g>
<g id="VFX">
	<path fill="none" stroke="#FEA269" stroke-width="8" stroke-linecap="round" stroke-linejoin="round" stroke-miterlimit="10" d="
		M356.554,2841.608c-13.525-24.999-18.84-51.823-27.609-78.437 M314.175,2780.442c14.014,12.099,31.514,24.815,49.66,30.512
		 M333.292,2832.679c2.498-6.122,1.997-19.585,3.412-28.206c2.123-12.927,3.991-26.152,5.308-39.097"/>
	<path fill="none" stroke="#FEA269" stroke-width="8" stroke-linecap="round" stroke-linejoin="round" stroke-miterlimit="10" d="
		M1109.189,2896.577c-5.857,4.423-21.871-55.165-24.548-64.067 M1061.139,2889.815c18.326-17.396,32.454-38.857,49.717-57.064
		 M1074.747,2919.239c12.363-31.365,19.654-72.175,28.14-108.768"/>
	<path fill="none" stroke="#FEA269" stroke-width="8" stroke-linecap="round" stroke-linejoin="round" stroke-miterlimit="10" d="
		M437.856,2895.385c-13.09-26.893-18.529-58.959-24.604-87.83 M401.552,2836.001c12.279,9.012,37.021,30.318,46.538,33.933
		 M431.281,2822.325c-12.718,17.452-5.642,46.35-15.867,65.785"/>
	<path fill="none" stroke="#FEA269" stroke-width="8" stroke-linecap="round" stroke-linejoin="round" stroke-miterlimit="10" d="
		M1022.258,2882.784c-7.572,27.1-11.198,62.044-27.154,85.057 M1002.515,2895.135c5.57,17.127,14.329,36.848,22.461,52.481
		 M989.463,2946.269c16.218-11.33,31.764-29.782,42.253-46.403"/>
	<path fill="none" stroke="#FEA269" stroke-width="8" stroke-linecap="round" stroke-linejoin="round" stroke-miterlimit="10" d="
		M508.008,3345.821c-2.513-24.851-12.956-48.904-14.936-73.684 M511.991,3285.082c-8.835,12.181-13.21,28.98-21.906,41.82
		 M515.974,3318.937c-10.454-7.577-20.438-16.537-31.863-22.901"/>
	<path fill="none" stroke="#FEA269" stroke-width="8" stroke-linecap="round" stroke-linejoin="round" stroke-miterlimit="10" d="
		M765.206,3589.471c4.151-16.397,4.945-36.903,12.748-52.498 M756.956,3575.221c10.327-6.826,17.957-17.225,27.748-24.748
		 M763.706,3551.223c5.584,8.043,8.166,19.572,14.248,27.748"/>
</g>
</svg>
