<svg version="1.1" xmlns="http://www.w3.org/2000/svg" xmlns:xlink="http://www.w3.org/1999/xlink" x="0px" y="0px"
	 viewBox="0 0 1919.76 1379.827" enable-background="new 0 0 1919.76 1379.827"
	 xml:space="preserve">
<g id="VFX">
	<path fill="none" stroke="#FFBB51" stroke-width="10" stroke-linecap="round" stroke-miterlimit="10" d="M667,239
		c-9.337-14.82-12.821-33.134-16.722-49.952C647.695,177.917,637.099,147.638,640,140 M664,150c-10.772,18.62-14.989,41.949-23,62
		 M622,168c17.259,9.938,35.665,18.156,53,28"/>
	<path fill="none" stroke="#FFBB51" stroke-width="10" stroke-linecap="round" stroke-miterlimit="10" d="M1247,95
		c-4.238,33.257-4.353,69.606-13,102 M1258,175c-8.241-19.939-22.426-38.233-33-57 M1223,167c14.416-11.194,25.065-30.984,37-45"/>
	<path fill="none" stroke="#FFBB51" stroke-width="10" stroke-linecap="round" stroke-miterlimit="10" d="M1355,185
		c0.522,21.431-8.225,50.343-13.223,72.078c-3.404,14.807-9.494,34.495-11.777,46.922 M1337,205
		c-0.087,11.383,6.178,26.11,11.274,37.048c1.852,3.974,3.955,7.566,5.471,11.752c0.766,2.114,3.114,7.583,1.255,5.199 M1326,249
		c1.757,2.274,14.758-12.433,18.972-16c8.544-7.232,17.813-13.587,26.028-21"/>
</g>
</svg>
