
<svg version="1.1" xmlns="http://www.w3.org/2000/svg" xmlns:xlink="http://www.w3.org/1999/xlink" x="0px" y="0px"
	 viewBox="0 0 3000 4549" enable-background="new 0 0 3000 4549" xml:space="preserve">
<g id="Layer_2">
	<path d="M2596.929,902.68c-34.494,166.327-142.662,237.931-289.818,291.43c-152.754,55.534-311.726,56.524-472.096,70.428
		c17.905,12.75,20.854,37.895-9.157,48.7c-3.523,0.761-8.856,0.761-8.856,0.761c-17.159-0.062-32.201-3.181-41.542-21.007
		c-5.196-9.916-3.576-17.723,1.431-23.508c-127.724,8.172-256.449-8.375-380.89-26.485
		c-104.695-15.236-181.406-73.701-251.217-152.876C1088.125,1025.866,1028.738,881.83,1072,807v-8
		c-144.027,29.282-324.236,37.59-464-19.11c-49.389-20.036-96.688-45.686-140.938-75.354
		c-96.758-64.872-176.667-138.877-163.506-262.874c9.101-85.743,61.646-156.684,127.837-208.766
		C567.363,125.905,764.41,73.56,936.003,82.11c76.281,3.802,150.894-6.173,227.106,4.775
		c76.064,10.927,155.464,42.898,224.797,77.004c59.236,29.14,122.979,67.397,160.192,123.11c19.862,29.734,57.595,133.734,23.9,160
		l4,4c26.694-38.163,168.957-19.235,220-24.014c91.754-8.59,164.598-0.783,255.004,8.014c81.022,7.884,155.086,4.909,228.996,34.996
		c62.991,25.642,128.543,44.607,187.096,82.101C2591.71,631.89,2628.25,751.649,2596.929,902.68z M1802,1399
		c-44.218-4.17-13.505-64.586,22-59.555c18.029,2.555,25.455,18.467,21.555,35.555C1841.212,1394.031,1820.553,1400.114,1802,1399
		 M1772,1475c-34.591,4.493-36.625-54.707,6-42.05c34.53,10.253,15.037,56.197-14,44.05"/>
	<text transform="matrix(1 0 0 1 490.3135 390)"><tspan x="0" y="0" fill="#FFFFFF" font-family="'WalterTurncoat-Regular'" font-size="130">Did that mean </tspan><tspan x="84.106" y="156" fill="#FFFFFF" font-family="'WalterTurncoat-Regular'" font-size="130">I was ugly?</tspan></text>
	<text transform="matrix(1 0 0 1 1324.2002 731)"><tspan x="0" y="0" fill="#FFFFFF" font-family="'WalterTurncoat-Regular'" font-size="130">Would my friends </tspan><tspan x="233.657" y="156" fill="#FFFFFF" font-family="'WalterTurncoat-Regular'" font-size="130">ever think </tspan><tspan x="43.418" y="312" fill="#FFFFFF" font-family="'WalterTurncoat-Regular'" font-size="130">I was beautiful?</tspan></text>
</g>
</svg>
