<svg version="1.1" xmlns="http://www.w3.org/2000/svg" xmlns:xlink="http://www.w3.org/1999/xlink" x="0px" y="0px"
	 viewBox="0 0 1919.76 4331.458" enable-background="new 0 0 1919.76 4331.458"
	 xml:space="preserve">
<g id="paper_text">
	<path fill="none" d="M181.742,279.632c0,0,624.062-207.021,1245.125,15.001"/>
	<text transform="matrix(0.9842 -0.1771 0.1771 0.9842 364.9888 234.2407)"><tspan x="0" y="0" font-size="105">T</tspan><tspan x="65.264" y="0.051" font-size="105" rotate="1.524">o</tspan><tspan x="122.585" y="1.735" font-size="105" rotate="2.433"> </tspan><tspan x="139.206" y="2.274" font-size="105" rotate="3.346">d</tspan><tspan x="196.871" y="5.644" font-size="105" rotate="4.759">o</tspan><tspan x="254.016" y="10.562" font-size="105" rotate="5.676"> </tspan><tspan x="270.666" y="12.167" font-size="105" rotate="6.312">t</tspan><tspan x="304.563" y="15.787" font-size="105" rotate="7.478">h</tspan><tspan x="362.491" y="23.537" font-size="105" rotate="8.57">i</tspan><tspan x="389.23" y="27.501" font-size="105" rotate="9.477">s</tspan><tspan x="431.422" y="34.609" font-size="105" rotate="10.382">,</tspan><tspan x="457.063" y="39.329" font-size="105" rotate="10.953"> </tspan><tspan x="473.451" y="42.443" font-size="105" rotate="11.644">I</tspan><tspan x="507.386" y="49.491" font-size="105" rotate="12.344"> </tspan><tspan x="523.748" y="53.07" font-size="105" rotate="12.805"> </tspan><tspan x="540.02" y="56.67" font-size="105" rotate="13.632">s</tspan><tspan x="581.487" y="66.677" font-size="105" rotate="14.945">e</tspan><tspan x="629.734" y="79.662" font-size="105" rotate="16.076">l</tspan><tspan x="656.758" y="87.33" font-size="105" rotate="17.228">e</tspan><tspan x="704.374" y="102.093" font-size="105" rotate="18.717">c</tspan><tspan x="750.622" y="117.845" font-size="105" rotate="19.998">t</tspan><tspan x="782.639" y="129.392" font-size="105" rotate="21.322">e</tspan><tspan x="829.035" y="147.426" font-size="105" rotate="23.056">d</tspan></text>
	<path fill="none" d="M277.751,483.653c0,0,552.056-273.027,1308.131,21.002"/>
	<text transform="matrix(0.971 -0.239 0.239 0.971 457.3394 421.3193)"><tspan x="0" y="0" font-size="105">2</tspan><tspan x="46.306" y="0.118" font-size="105" rotate="1.346">,</tspan><tspan x="72.102" y="0.459" font-size="105" rotate="2.953">0</tspan><tspan x="134.97" y="3.695" font-size="105" rotate="5.155">0</tspan><tspan x="197.699" y="9.347" font-size="105" rotate="7.299">0</tspan><tspan x="260.366" y="17.644" font-size="105" rotate="8.631"> </tspan><tspan x="276.764" y="19.927" font-size="105" rotate="9.82">b</tspan><tspan x="331.063" y="29.302" font-size="105" rotate="11.654">o</tspan><tspan x="386.98" y="40.828" font-size="105" rotate="13.497">o</tspan><tspan x="442.5" y="54.18" font-size="105" rotate="15.255">k</tspan><tspan x="493.723" y="68.216" font-size="105" rotate="16.766">s</tspan><tspan x="534.63" y="80.649" font-size="105" rotate="17.697"> </tspan><tspan x="550.51" y="85.603" font-size="105" rotate="18.622">s</tspan><tspan x="590.907" y="99.108" font-size="105" rotate="20.162">p</tspan><tspan x="644.422" y="118.813" font-size="105" rotate="21.78">a</tspan><tspan x="689.845" y="136.89" font-size="105" rotate="23.389">n</tspan><tspan x="742.749" y="159.766" font-size="105" rotate="25.106">n</tspan><tspan x="795.001" y="184.432" font-size="105" rotate="26.352">i</tspan><tspan x="819.212" y="196.236" font-size="105" rotate="27.583">n</tspan><tspan x="870.342" y="222.988" font-size="105" rotate="29.149">g</tspan><tspan x="915.495" y="248.339" font-size="105" rotate="30.116"> </tspan></text>
	<path fill="none" d="M346.758,658.67c0,0,558.055-237.023,1287.128,36.004"/>
	<text transform="matrix(0.9698 -0.2438 0.2438 0.9698 456.9233 622.3989)"><tspan x="0" y="0" font-size="105">P</tspan><tspan x="57.334" y="-0.001" font-size="105" rotate="2.087">u</tspan><tspan x="115.205" y="2.297" font-size="105" rotate="3.553">l</tspan><tspan x="143.344" y="4.047" font-size="105" rotate="4.467">i</tspan><tspan x="170.262" y="6.118" font-size="105" rotate="5.459">t</tspan><tspan x="204.157" y="9.274" font-size="105" rotate="6.767">z</tspan><tspan x="251.873" y="14.919" font-size="105" rotate="8.294">e</tspan><tspan x="301.224" y="22.181" font-size="105" rotate="9.642">r</tspan><tspan x="338.551" y="28.515" font-size="105" rotate="10.807">-</tspan><tspan x="376.592" y="35.495" font-size="105" rotate="12.517">w</tspan><tspan x="449.759" y="52.059" font-size="105" rotate="14.034">i</tspan><tspan x="475.912" y="58.418" font-size="105" rotate="15.287">n</tspan><tspan x="531.542" y="73.618" font-size="105" rotate="16.983">n</tspan><tspan x="586.767" y="90.654" font-size="105" rotate="18.221">i</tspan><tspan x="612.405" y="98.915" font-size="105" rotate="19.452">n</tspan><tspan x="666.785" y="118.159" font-size="105" rotate="21.032">g</tspan><tspan x="715.048" y="136.875" font-size="105" rotate="22.014"> </tspan><tspan x="730.518" y="142.985" font-size="105" rotate="22.954">c</tspan><tspan x="775.522" y="162.15" font-size="105" rotate="24.051">l</tspan><tspan x="801.231" y="173.512" font-size="105" rotate="25.144">a</tspan><tspan x="845.55" y="194.348" font-size="105" rotate="26.434">s</tspan><tspan x="883.765" y="213.343" font-size="105" rotate="27.627">s</tspan><tspan x="921.635" y="233.236" font-size="105" rotate="28.596">i</tspan><tspan x="945.354" y="246.048" font-size="105" rotate="29.642">c</tspan><tspan x="987.838" y="270.26" font-size="105" rotate="30.894">s</tspan></text>
	<path fill="none" d="M237.747,862.692C237.747,862.692,812,647,1324,827"/>
	<text transform="matrix(0.966 -0.2585 0.2585 0.966 343.1753 829.5742)"><tspan x="0" y="0" font-size="105">t</tspan><tspan x="34.075" y="-0.129" font-size="105" rotate="1.278">o</tspan><tspan x="91.393" y="1.326" font-size="105" rotate="2.281"> </tspan><tspan x="107.983" y="1.808" font-size="105" rotate="3.273">p</tspan><tspan x="164.965" y="5.054" font-size="105" rotate="4.818">u</tspan><tspan x="222.763" y="10.073" font-size="105" rotate="5.989">l</tspan><tspan x="250.731" y="12.852" font-size="105" rotate="7.169">p</tspan><tspan x="307.371" y="20.021" font-size="105" rotate="8.675">y</tspan><tspan x="355.841" y="27.549" font-size="105" rotate="9.633"> </tspan><tspan x="372.225" y="30.141" font-size="105" rotate="10.707">b</tspan><tspan x="426.425" y="40.417" font-size="105" rotate="12.33">e</tspan><tspan x="475.101" y="51.094" font-size="105" rotate="13.817">s</tspan><tspan x="516.508" y="61.32" font-size="105" rotate="15.097">t</tspan><tspan x="549.404" y="70.161" font-size="105" rotate="16.353">-</tspan><tspan x="586.578" y="81.034" font-size="105" rotate="17.806">s</tspan><tspan x="627.097" y="93.977" font-size="105" rotate="19.523">e</tspan><tspan x="674.016" y="110.756" font-size="105" rotate="21.029">l</tspan><tspan x="700.247" y="120.836" font-size="105" rotate="22.152">l</tspan><tspan x="726.23" y="131.238" font-size="105" rotate="23.757">e</tspan><tspan x="771.712" y="151.349" font-size="105" rotate="25.63">r</tspan><tspan x="805.72" y="167.611" font-size="105" rotate="27.418">s</tspan><tspan x="843.453" y="187.304" font-size="105" rotate="28.991">,</tspan></text>
	<path fill="none" d="M328,1006c0,0,278-94,741.831,84.712"/>
	<text transform="matrix(0.9947 -0.1025 0.1025 0.9947 410.6367 988.7339)"><tspan x="0" y="0" font-size="105">a</tspan><tspan x="48.35" y="-0.118" font-size="105" rotate="3.282">n</tspan><tspan x="105.504" y="3.164" font-size="105" rotate="6.415">d</tspan><tspan x="162.714" y="9.931" font-size="105" rotate="8.275"> </tspan><tspan x="179.068" y="12.184" font-size="105" rotate="9.576">r</tspan><tspan x="216.169" y="18.343" font-size="105" rotate="11.546">a</tspan><tspan x="263.885" y="27.999" font-size="105" rotate="13.828">n</tspan><tspan x="319.843" y="42.051" font-size="105" rotate="15.341"> </tspan><tspan x="335.88" y="46.369" font-size="105" rotate="16.342">t</tspan><tspan x="368.486" y="55.733" font-size="105" rotate="18.094">h</tspan><tspan x="423.799" y="73.88" font-size="105" rotate="20.046">e</tspan><tspan x="470.508" y="90.49" font-size="105" rotate="22.409">m</tspan></text>
	<path fill="none" d="M525.776,1241.729c0,0,178.224-89.729,430.224-53.729"/>
	<text transform="matrix(0.9554 -0.2952 0.2952 0.9554 580.2515 1219.9326)"><tspan x="0" y="0" font-size="105">t</tspan><tspan x="33.414" y="-0.379" font-size="105" rotate="3.47">h</tspan><tspan x="91.065" y="3.402" font-size="105" rotate="6.861">r</tspan><tspan x="128.075" y="7.553" font-size="105" rotate="10.119">o</tspan><tspan x="183.694" y="17.429" font-size="105" rotate="14.012">u</tspan><tspan x="239.246" y="31.362" font-size="105" rotate="17.698">g</tspan><tspan x="287.866" y="46.727" font-size="105" rotate="21.387">h</tspan></text>
	<path fill="none" d="M694.793,1375.741c0,0,101.207-5.741,180.018,30.003"/>
	<text transform="matrix(0.9912 0.1327 -0.1327 0.9912 753.9526 1376.6001)" font-size="105">a</text>
	<path fill="none" d="M452,3132c0,0,7.961,45.815,458.814,45.923C1236,3178,1434,3294,1434,3294"/>
	<text transform="matrix(0.9972 0.0751 -0.0751 0.9972 614.8853 3168.208)"><tspan x="0" y="0" font-size="105">I</tspan><tspan x="34.635" y="-0.056" font-size="105" rotate="-0.688"> </tspan><tspan x="51.355" y="-0.215" font-size="105" rotate="-1.27">t</tspan><tspan x="85.546" y="-0.893" font-size="105" rotate="-2.14">h</tspan><tspan x="144.04" y="-3.121" font-size="105" rotate="-2.944">e</tspan><tspan x="194.101" y="-5.682" font-size="105" rotate="-3.589">n</tspan><tspan x="252.032" y="-9.389" font-size="105" rotate="-3.97"> </tspan><tspan x="268.832" y="-10.554" font-size="105" rotate="-4.174">e</tspan><tspan x="318.414" y="-14.274" font-size="105" rotate="-2.266">x</tspan><tspan x="368.439" y="-16.136" font-size="105" rotate="-0.465">t</tspan><tspan x="402.392" y="-16.445" font-size="105" rotate="1.096">r</tspan><tspan x="440.04" y="-15.828" font-size="105" rotate="3.006">a</tspan><tspan x="488.675" y="-13.29" font-size="105" rotate="5.199">c</tspan><tspan x="537.133" y="-8.769" font-size="105" rotate="7.102">t</tspan><tspan x="570.746" y="-4.733" font-size="105" rotate="9.078">e</tspan><tspan x="619.635" y="2.957" font-size="105" rotate="11.704">d</tspan></text>
	<line fill="none" x1="491.112" y1="3742.014" x2="770.098" y2="3784.012"/>
	<text transform="matrix(0.9889 0.1489 0 1 523.3579 3746.8691)" font-size="55">t</text>
	<text transform="matrix(0.9889 0.1489 0 1 541.2051 3749.5557)" font-size="55">h</text>
	<text transform="matrix(0.9889 0.1489 0 1 571.6636 3754.1406)" font-size="55">e</text>
	<text transform="matrix(0.9889 0.1489 0 1 597.6978 3758.0605)" font-size="55"> </text>
	<text transform="matrix(0.9889 0.1489 0 1 606.4609 3759.3789)" font-size="55">o</text>
	<text transform="matrix(0.9889 0.1489 0 1 636.3164 3763.873)" font-size="55">w</text>
	<text transform="matrix(0.9889 0.1489 0 1 675.4365 3769.7617)" font-size="55">n</text>
	<text transform="matrix(0.9889 0.1489 0 1 705.5562 3774.2969)" font-size="55">e</text>
	<text transform="matrix(0.9889 0.1489 0 1 731.6216 3778.2197)" font-size="55">r</text>
	<line fill="none" x1="491.112" y1="3808.349" x2="770.098" y2="3850.347"/>
	<text transform="matrix(0.9889 0.1489 0 1 570.5371 3820.3057)" font-size="55">o</text>
	<text transform="matrix(0.9889 0.1489 0 1 600.3813 3824.7988)" font-size="55">f</text>
	<text transform="matrix(0.9889 0.1489 0 1 617.522 3827.3789)" font-size="55"> </text>
	<text transform="matrix(0.9889 0.1489 0 1 626.2827 3828.6973)" font-size="55">t</text>
	<text transform="matrix(0.9889 0.1489 0 1 644.1055 3831.3799)" font-size="55">h</text>
	<text transform="matrix(0.9889 0.1489 0 1 674.5703 3835.9668)" font-size="55">e</text>
	<line fill="none" x1="491.112" y1="3875.008" x2="770.098" y2="3917.006"/>
	<text transform="matrix(0.9889 0.1489 0 1 512.3872 3878.2109)" font-size="55">b</text>
	<text transform="matrix(0.9889 0.1489 0 1 541.1963 3882.5479)" font-size="55">o</text>
	<text transform="matrix(0.9889 0.1489 0 1 571.0586 3887.0439)" font-size="55">d</text>
	<text transform="matrix(0.9889 0.1489 0 1 601.2056 3891.5811)" font-size="55">y</text>
	<text transform="matrix(0.9889 0.1489 0 1 626.7632 3895.4297)" font-size="55"> </text>
	<text transform="matrix(0.9889 0.1489 0 1 635.5146 3896.7461)" font-size="55">p</text>
	<text transform="matrix(0.9889 0.1489 0 1 665.3145 3901.2324)" font-size="55">a</text>
	<text transform="matrix(0.9889 0.1489 0 1 690.8779 3905.0811)" font-size="55">r</text>
	<text transform="matrix(0.9889 0.1489 0 1 710.6768 3908.0605)" font-size="55">t</text>
	<text transform="matrix(0.9889 0.1489 0 1 728.5112 3910.7461)" font-size="55">s</text>
	<line fill="none" x1="1055.168" y1="3770.021" x2="1334.154" y2="3812.02"/>
	<text transform="matrix(0.9889 0.1489 0 1 1160.8037 3785.9238)" font-size="55">a</text>
	<text transform="matrix(0.9889 0.1489 0 1 1186.3887 3789.7754)" font-size="55">n</text>
	<text transform="matrix(0.9889 0.1489 0 1 1216.4971 3794.3076)" font-size="55">y</text>
	<line fill="none" x1="1055.168" y1="3839.667" x2="1334.154" y2="3881.665"/>
	<text transform="matrix(0.9889 0.1489 0 1 1086.2861 3844.3516)" font-size="55">a</text>
	<text transform="matrix(0.9889 0.1489 0 1 1111.8594 3848.2012)" font-size="55">d</text>
	<text transform="matrix(0.9889 0.1489 0 1 1141.9814 3852.7363)" font-size="55">j</text>
	<text transform="matrix(0.9889 0.1489 0 1 1155.8438 3854.8232)" font-size="55">e</text>
	<text transform="matrix(0.9889 0.1489 0 1 1181.9082 3858.7461)" font-size="55">c</text>
	<text transform="matrix(0.9889 0.1489 0 1 1207.4004 3862.584)" font-size="55">t</text>
	<text transform="matrix(0.9889 0.1489 0 1 1225.2285 3865.2686)" font-size="55">i</text>
	<text transform="matrix(0.9889 0.1489 0 1 1239.3877 3867.3994)" font-size="55">v</text>
	<text transform="matrix(0.9889 0.1489 0 1 1264.6299 3871.1992)" font-size="55">e</text>
	<text transform="matrix(0.9889 0.1489 0 1 1290.6611 3875.1182)" font-size="55">s</text>
	<line fill="none" x1="1055.168" y1="3909.642" x2="1334.154" y2="3951.64"/>
	<text transform="matrix(0.9889 0.1489 0 1 1076.6484 3912.875)" font-size="55">d</text>
	<text transform="matrix(0.9889 0.1489 0 1 1106.7832 3917.4121)" font-size="55">e</text>
	<text transform="matrix(0.9889 0.1489 0 1 1132.8438 3921.335)" font-size="55">s</text>
	<text transform="matrix(0.9889 0.1489 0 1 1155.1348 3924.6904)" font-size="55">c</text>
	<text transform="matrix(0.9889 0.1489 0 1 1180.6514 3928.5322)" font-size="55">r</text>
	<text transform="matrix(0.9889 0.1489 0 1 1200.4482 3931.5127)" font-size="55">i</text>
	<text transform="matrix(0.9889 0.1489 0 1 1214.5674 3933.6377)" font-size="55">b</text>
	<text transform="matrix(0.9889 0.1489 0 1 1243.4023 3937.9785)" font-size="55">i</text>
	<text transform="matrix(0.9889 0.1489 0 1 1257.541 3940.1074)" font-size="55">n</text>
	<text transform="matrix(0.9889 0.1489 0 1 1287.6709 3944.6426)" font-size="55">g</text>
	<line fill="none" x1="1055.168" y1="3979.016" x2="1334.154" y2="4021.014"/>
	<text transform="matrix(0.9889 0.1489 0 1 1128.5869 3990.0684)" font-size="55">t</text>
	<text transform="matrix(0.9889 0.1489 0 1 1146.4326 3992.7549)" font-size="55">h</text>
	<text transform="matrix(0.9889 0.1489 0 1 1176.8857 3997.3398)" font-size="55">e</text>
	<text transform="matrix(0.9889 0.1489 0 1 1202.9414 4001.2617)" font-size="55">m</text>
	<text transform="matrix(0.9889 0.1489 0 1 1249.4355 4008.2617)" font-size="55">.</text>
	<text transform="matrix(1 0 0 1 885.5674 3972)" font-size="95">&amp;</text>
	<path fill="none" d="M747.601,1958.601c0,0,229.489,65.997,538.473-1.5"/>
	<text class="atlas" transform="matrix(0.991 0.1341 0 1 813.0493 1972.771)" font-size="112">p</text>
	<text class="atlas" transform="matrix(0.9974 0.0714 0 1 882.6865 1981.9429)" font-size="112">a</text>
	<text class="atlas" transform="matrix(0.9999 0.0114 0 1 957.7441 1987.0313)" font-size="112">r</text>
	<text class="atlas" transform="matrix(0.999 -0.0447 0 1 1033.0098 1987.561)" font-size="112">s</text>
	<text class="atlas" transform="matrix(0.9952 -0.098 0 1 1103.1445 1984.1802)" font-size="112">e</text>
	<text class="atlas" transform="matrix(0.9883 -0.1527 0 1 1173.0156 1977.1196)" font-size="112">r</text>
	<path class="atlas" fill="none" d="M737.624,2304.627c0,0,230.512,99.494,513.015,3"/>
	<text class="atlas" transform="matrix(0.952 0.3061 0 1 758.5195 2312.499)" font-size="37">t</text>
	<text class="atlas" transform="matrix(0.9623 0.2721 0 1 777.3965 2318.5654)" font-size="37">h</text>
	<text class="atlas" transform="matrix(0.971 0.2392 0 1 799.73 2324.8525)" font-size="37">a</text>
	<text class="atlas" transform="matrix(0.9776 0.2105 0 1 822.2427 2330.3525)" font-size="37">t</text>
	<text class="atlas" transform="matrix(0.9815 0.1912 0 1 841.6426 2334.4639)" font-size="37"> </text>
	<text class="atlas" transform="matrix(0.9839 0.1787 0 1 851.1953 2336.3164)" font-size="37">i</text>
	<text class="atlas" transform="matrix(0.9875 0.1578 0 1 860.7637 2338.1133)" font-size="37">d</text>
	<text class="atlas" transform="matrix(0.9916 0.1296 0 1 883.6816 2341.7432)" font-size="37">e</text>
	<text class="atlas" transform="matrix(0.9948 0.1015 0 1 905.0454 2344.5283)" font-size="37">n</text>
	<text class="atlas" transform="matrix(0.9972 0.0746 0 1 928.0952 2346.8389)" font-size="37">t</text>
	<text class="atlas" transform="matrix(0.9984 0.0561 0 1 947.8862 2348.2598)" font-size="37">i</text>
	<text class="atlas" transform="matrix(0.9993 0.0375 0 1 957.5942 2348.8398)" font-size="37">f</text>
	<text class="atlas" transform="matrix(0.9998 0.019 0 1 977.4336 2349.5264)" font-size="37">i</text>
	<text class="atlas" transform="matrix(1 -6.845426e-004 0 1 987.1504 2349.7559)" font-size="37">e</text>
	<text class="atlas" transform="matrix(0.9996 -0.0289 0 1 1008.6719 2349.7354)" font-size="37">d</text>
	<text class="atlas" transform="matrix(0.9988 -0.0497 0 1 1031.8496 2348.9824)" font-size="37"> </text>
	<text class="atlas" transform="matrix(0.9976 -0.0695 0 1 1041.5879 2348.543)" font-size="37">s</text>
	<text class="atlas" transform="matrix(0.9953 -0.0967 0 1 1063.0605 2347.0313)" font-size="37">e</text>
	<text class="atlas" transform="matrix(0.9921 -0.1251 0 1 1084.5 2344.9404)" font-size="37">n</text>
	<text class="atlas" transform="matrix(0.9883 -0.1523 0 1 1107.4922 2342)" font-size="37">t</text>
	<text class="atlas" transform="matrix(0.984 -0.1784 0 1 1127.0938 2338.9736)" font-size="37">e</text>
	<text class="atlas" transform="matrix(0.9784 -0.2065 0 1 1148.2949 2335.123)" font-size="37">n</text>
	<text class="atlas" transform="matrix(0.9719 -0.2355 0 1 1170.9746 2330.3154)" font-size="37">c</text>
	<text class="atlas" transform="matrix(0.9648 -0.2631 0 1 1193.5078 2324.8262)" font-size="37">e</text>
	<text class="atlas" transform="matrix(0.9572 -0.2894 0 1 1214.2695 2319.1455)" font-size="37">s</text>
	<path class="atlas" fill="none" d="M737.624,2358.627c0,0,230.512,99.494,513.015,3"/>
	<text class="atlas" transform="matrix(0.9672 0.2539 0 1 787.8804 2375.6533)" font-size="37">m</text>
	<text class="atlas" transform="matrix(0.975 0.2221 0 1 812.8779 2382.1602)" font-size="37">e</text>
	<text class="atlas" transform="matrix(0.9811 0.1937 0 1 833.1543 2386.7793)" font-size="37">n</text>
	<text class="atlas" transform="matrix(0.9859 0.1671 0 1 855.1929 2391.0996)" font-size="37">t</text>
	<text class="atlas" transform="matrix(0.9888 0.1493 0 1 874.02 2394.2393)" font-size="37">i</text>
	<text class="atlas" transform="matrix(0.9917 0.1284 0 1 882.9038 2395.6553)" font-size="37">o</text>
	<text class="atlas" transform="matrix(0.9951 0.0992 0 1 906.8691 2398.7363)" font-size="37">n</text>
	<text class="atlas" transform="matrix(0.9968 0.0795 0 1 929.2227 2400.8926)" font-size="37">i</text>
	<text class="atlas" transform="matrix(0.9982 0.0598 0 1 938.1816 2401.6689)" font-size="37">n</text>
	<text class="atlas" transform="matrix(0.9995 0.0306 0 1 960.584 2403.0146)" font-size="37">g</text>
	<text class="atlas" transform="matrix(1 0.0098 0 1 984.75 2403.6699)" font-size="37"> </text>
	<text class="atlas" transform="matrix(0.9999 -0.01 0 1 993.7383 2403.8193)" font-size="37">b</text>
	<text class="atlas" transform="matrix(0.9992 -0.0395 0 1 1016.1992 2403.5996)" font-size="37">o</text>
	<text class="atlas" transform="matrix(0.9976 -0.0689 0 1 1040.332 2402.625)" font-size="37">d</text>
	<text class="atlas" transform="matrix(0.9953 -0.0963 0 1 1062.7383 2401.0576)" font-size="37">y</text>
	<text class="atlas" transform="matrix(0.9933 -0.1152 0 1 1083.4395 2398.9922)" font-size="37"> </text>
	<text class="atlas" transform="matrix(0.991 -0.1341 0 1 1092.3672 2398.0078)" font-size="37">p</text>
	<text class="atlas" transform="matrix(0.9869 -0.1614 0 1 1112.9785 2395.2227)" font-size="37">a</text>
	<text class="atlas" transform="matrix(0.9818 -0.1897 0 1 1135.125 2391.5928)" font-size="37">r</text>
	<text class="atlas" transform="matrix(0.9765 -0.2157 0 1 1157.1621 2387.3047)" font-size="37">t</text>
	<text class="atlas" transform="matrix(0.9706 -0.2406 0 1 1175.8184 2383.1855)" font-size="37">s</text>
	<text class="atlas" transform="matrix(0.9659 -0.259 0 1 1195.9629 2378.1309)" font-size="37">.</text>
</g>
<g id="library_card_text">
	<text transform="matrix(0.9799 0.1994 -0.1994 0.9799 1436.0586 877.627)"><tspan x="0" y="0" font-family="'WalterTurncoat-Regular'" font-size="32">(getting myself  </tspan><tspan x="19.266" y="38.4" font-family="'WalterTurncoat-Regular'" font-size="32">banned from  </tspan><tspan x="23.453" y="76.8" font-family="'WalterTurncoat-Regular'" font-size="32">the library—</tspan><tspan x="77.437" y="115.2" font-family="'WalterTurncoat-Regular'" font-size="32">twice)</tspan></text>
</g>
<g id="FX">
	<g>
		<path fill="none" stroke="#CC0A0A" stroke-width="15" stroke-linecap="round" stroke-miterlimit="10" d="M1328.072,795.152
			c-2.961,75.305,40.831,145.096,47.997,218.989"/>
		<path fill="none" stroke="#CC0A0A" stroke-width="15" stroke-linecap="round" stroke-miterlimit="10" d="M1407.568,822.151
			c-19.578,21.736-36.557,47.023-52.241,71.628c-22.001,34.513-47.003,70.734-60.253,109.863"/>
	</g>
</g>
</svg>
