
<svg version="1.1" id="Layer_1" xmlns="http://www.w3.org/2000/svg" xmlns:xlink="http://www.w3.org/1999/xlink" x="0px" y="0px"
	 viewBox="0 0 1919.76 4331.458" enable-background="new 0 0 1919.76 4331.458"
	 xml:space="preserve">
<g id="paper_text">
	<path fill="none" d="M182.503,290.912c0,0,620.207-218.3,1245.192-7.573"/>
	<text transform="matrix(0.9808 -0.195 0.195 0.9808 364.8975 242.2061)" font-family="'LyonDisplay-Regular'" font-size="105">T</text>
	<text transform="matrix(0.9808 -0.195 0.195 0.9808 428.918 229.5298)" font-family="'LyonDisplay-Regular'" font-size="105">o</text>
	<text transform="matrix(0.9808 -0.195 0.195 0.9808 485.4668 220.0044)" font-family="'LyonDisplay-Regular'" font-size="105"> </text>
	<text transform="matrix(0.9808 -0.195 0.195 0.9808 501.875 217.291)" font-family="'LyonDisplay-Regular'" font-size="105">d</text>
	<text transform="matrix(0.9808 -0.195 0.195 0.9808 559.0889 209.3516)" font-family="'LyonDisplay-Regular'" font-size="105">o</text>
	<text transform="matrix(0.9808 -0.195 0.195 0.9808 616.0957 203.0332)" font-family="'LyonDisplay-Regular'" font-size="105"> </text>
	<text transform="matrix(0.9808 -0.195 0.195 0.9808 632.7393 201.3594)" font-family="'LyonDisplay-Regular'" font-size="105">t</text>
	<text transform="matrix(0.9808 -0.195 0.195 0.9808 666.6914 198.3003)" font-family="'LyonDisplay-Regular'" font-size="105">h</text>
	<text transform="matrix(0.9808 -0.195 0.195 0.9808 725.0186 194.6055)" font-family="'LyonDisplay-Regular'" font-size="105">i</text>
	<text transform="matrix(0.9808 -0.195 0.195 0.9808 752.0166 193.2803)" font-family="'LyonDisplay-Regular'" font-size="105">s</text>
	<text transform="matrix(0.9808 -0.195 0.195 0.9808 794.7842 192.0234)" font-family="'LyonDisplay-Regular'" font-size="105">,</text>
	<text transform="matrix(0.9808 -0.195 0.195 0.9808 820.8535 191.6528)" font-family="'LyonDisplay-Regular'" font-size="105"> </text>
	<text transform="matrix(0.9808 -0.195 0.195 0.9808 837.5342 191.5122)" font-family="'LyonDisplay-Regular'" font-size="105">I</text>
	<text transform="matrix(0.9808 -0.195 0.195 0.9808 872.1924 191.8066)" font-family="'LyonDisplay-Regular'" font-size="105"> </text>
	<text transform="matrix(0.9808 -0.195 0.195 0.9808 888.9375 192.126)" font-family="'LyonDisplay-Regular'" font-size="105"> </text>
	<text transform="matrix(0.9808 -0.195 0.195 0.9808 905.5996 192.4839)" font-family="'LyonDisplay-Regular'" font-size="105">s</text>
	<text transform="matrix(0.9808 -0.195 0.195 0.9808 948.2217 194.2139)" font-family="'LyonDisplay-Regular'" font-size="105">e</text>
	<text transform="matrix(0.9808 -0.195 0.195 0.9808 998.0742 197.5405)" font-family="'LyonDisplay-Regular'" font-size="105">l</text>
	<text transform="matrix(0.9808 -0.195 0.195 0.9808 1026.0752 199.7925)" font-family="'LyonDisplay-Regular'" font-size="105">e</text>
	<text transform="matrix(0.9808 -0.195 0.195 0.9808 1075.6553 204.9858)" font-family="'LyonDisplay-Regular'" font-size="105">c</text>
	<text transform="matrix(0.9808 -0.195 0.195 0.9808 1124.0869 211.417)" font-family="'LyonDisplay-Regular'" font-size="105">t</text>
	<text transform="matrix(0.9808 -0.195 0.195 0.9808 1157.7412 216.5)" font-family="'LyonDisplay-Regular'" font-size="105">e</text>
	<text transform="matrix(0.9808 -0.195 0.195 0.9808 1206.7627 225.1396)" font-family="'LyonDisplay-Regular'" font-size="105">d</text>
	<path fill="none" d="M277.514,480.248c0,0,553.47-270.149,1308.003,27.813"/>

		<text transform="matrix(0.9492 -0.3148 0.3148 0.9492 346.1006 452.5127)" font-family="'LyonDisplay-Regular'" font-size="104.9942">2</text>

		<text transform="matrix(0.9492 -0.3148 0.3148 0.9492 390.0068 438.1021)" font-family="'LyonDisplay-Regular'" font-size="104.9942">,</text>

		<text transform="matrix(0.9492 -0.3148 0.3148 0.9492 414.5503 430.4087)" font-family="'LyonDisplay-Regular'" font-size="104.9942">0</text>

		<text transform="matrix(0.9492 -0.3148 0.3148 0.9492 475.3145 414.2188)" font-family="'LyonDisplay-Regular'" font-size="104.9942">0</text>

		<text transform="matrix(0.9492 -0.3148 0.3148 0.9492 536.7739 400.5708)" font-family="'LyonDisplay-Regular'" font-size="104.9942">0</text>

		<text transform="matrix(0.9492 -0.3148 0.3148 0.9492 599.0239 389.6104)" font-family="'LyonDisplay-Regular'" font-size="104.9942"> </text>

		<text transform="matrix(0.9492 -0.3148 0.3148 0.9492 615.3242 386.8594)" font-family="'LyonDisplay-Regular'" font-size="104.9942">b</text>

		<text transform="matrix(0.9492 -0.3148 0.3148 0.9492 669.9092 379.543)" font-family="'LyonDisplay-Regular'" font-size="104.9942">o</text>

		<text transform="matrix(0.9492 -0.3148 0.3148 0.9492 726.6943 373.8525)" font-family="'LyonDisplay-Regular'" font-size="104.9942">o</text>

		<text transform="matrix(0.9492 -0.3148 0.3148 0.9492 783.6621 370.0737)" font-family="'LyonDisplay-Regular'" font-size="104.9942">k</text>

		<text transform="matrix(0.9492 -0.3148 0.3148 0.9492 836.7065 368.2705)" font-family="'LyonDisplay-Regular'" font-size="104.9942">s</text>

		<text transform="matrix(0.9492 -0.3148 0.3148 0.9492 879.4722 368.0254)" font-family="'LyonDisplay-Regular'" font-size="104.9942"> </text>

		<text transform="matrix(0.9492 -0.3148 0.3148 0.9492 896.0801 368.0547)" font-family="'LyonDisplay-Regular'" font-size="104.9942">s</text>

		<text transform="matrix(0.9492 -0.3148 0.3148 0.9492 938.6382 369.0117)" font-family="'LyonDisplay-Regular'" font-size="104.9942">p</text>

		<text transform="matrix(0.9492 -0.3148 0.3148 0.9492 995.6006 372.0547)" font-family="'LyonDisplay-Regular'" font-size="104.9942">a</text>

		<text transform="matrix(0.9492 -0.3148 0.3148 0.9492 1044.29 375.9575)" font-family="'LyonDisplay-Regular'" font-size="104.9942">n</text>

		<text transform="matrix(0.9492 -0.3148 0.3148 0.9492 1101.5801 382.2881)" font-family="'LyonDisplay-Regular'" font-size="104.9942">n</text>

		<text transform="matrix(0.9492 -0.3148 0.3148 0.9492 1158.749 390.5732)" font-family="'LyonDisplay-Regular'" font-size="104.9942">i</text>

		<text transform="matrix(0.9492 -0.3148 0.3148 0.9492 1185.3398 394.7788)" font-family="'LyonDisplay-Regular'" font-size="104.9942">n</text>

		<text transform="matrix(0.9492 -0.3148 0.3148 0.9492 1242.0195 405.4546)" font-family="'LyonDisplay-Regular'" font-size="104.9942">g</text>

		<text transform="matrix(0.9492 -0.3148 0.3148 0.9492 1292.5908 416.5864)" font-family="'LyonDisplay-Regular'" font-size="104.9942"> </text>

		<text transform="matrix(0.9492 -0.3148 0.3148 0.9492 1308.8564 420.3608)" font-family="'LyonDisplay-Regular'" font-size="104.9942">f</text>

		<text transform="matrix(0.9492 -0.3148 0.3148 0.9492 1340.6445 428.2412)" font-family="'LyonDisplay-Regular'" font-size="104.9942">r</text>

		<text transform="matrix(0.9492 -0.3148 0.3148 0.9492 1377.1934 437.9009)" font-family="'LyonDisplay-Regular'" font-size="104.9942">o</text>

		<text transform="matrix(0.9492 -0.3148 0.3148 0.9492 1432.0283 453.666)" font-family="'LyonDisplay-Regular'" font-size="104.9942">m</text>
	<path fill="none" d="M346.758,655.67c0,0,558.055-237.023,1287.128,36.004"/>
	<text transform="matrix(0.9698 -0.2438 0.2438 0.9698 456.9229 619.3994)" font-family="'LyonDisplay-Regular'" font-size="105">P</text>
	<text transform="matrix(0.9698 -0.2438 0.2438 0.9698 512.5254 605.4204)" font-family="'LyonDisplay-Regular'" font-size="105">u</text>
	<text transform="matrix(0.9698 -0.2438 0.2438 0.9698 569.209 593.5415)" font-family="'LyonDisplay-Regular'" font-size="105">l</text>
	<text transform="matrix(0.9698 -0.2438 0.2438 0.9698 596.9248 588.377)" font-family="'LyonDisplay-Regular'" font-size="105">i</text>
	<text transform="matrix(0.9698 -0.2438 0.2438 0.9698 623.5352 583.8232)" font-family="'LyonDisplay-Regular'" font-size="105">t</text>
	<text transform="matrix(0.9698 -0.2438 0.2438 0.9698 657.1758 578.6201)" font-family="'LyonDisplay-Regular'" font-size="105">z</text>
	<text transform="matrix(0.9698 -0.2438 0.2438 0.9698 704.8271 572.4614)" font-family="'LyonDisplay-Regular'" font-size="105">e</text>
	<text transform="matrix(0.9698 -0.2438 0.2438 0.9698 754.458 567.4722)" font-family="'LyonDisplay-Regular'" font-size="105">r</text>
	<text transform="matrix(0.9698 -0.2438 0.2438 0.9698 792.2021 564.5146)" font-family="'LyonDisplay-Regular'" font-size="105">-</text>
	<text transform="matrix(0.9698 -0.2438 0.2438 0.9698 830.7959 562.0098)" font-family="'LyonDisplay-Regular'" font-size="105">w</text>
	<text transform="matrix(0.9698 -0.2438 0.2438 0.9698 905.791 560.2354)" font-family="'LyonDisplay-Regular'" font-size="105">i</text>
	<text transform="matrix(0.9698 -0.2438 0.2438 0.9698 932.7051 560.0259)" font-family="'LyonDisplay-Regular'" font-size="105">n</text>
	<text transform="matrix(0.9698 -0.2438 0.2438 0.9698 990.3604 561.2046)" font-family="'LyonDisplay-Regular'" font-size="105">n</text>
	<text transform="matrix(0.9698 -0.2438 0.2438 0.9698 1048.0713 564.2622)" font-family="'LyonDisplay-Regular'" font-size="105">i</text>
	<text transform="matrix(0.9698 -0.2438 0.2438 0.9698 1074.9492 566.0229)" font-family="'LyonDisplay-Regular'" font-size="105">n</text>
	<text transform="matrix(0.9698 -0.2438 0.2438 0.9698 1132.3789 571.4282)" font-family="'LyonDisplay-Regular'" font-size="105">g</text>
	<text transform="matrix(0.9698 -0.2438 0.2438 0.9698 1183.7471 577.8125)" font-family="'LyonDisplay-Regular'" font-size="105"> </text>
	<text transform="matrix(0.9698 -0.2438 0.2438 0.9698 1200.2393 579.9663)" font-family="'LyonDisplay-Regular'" font-size="105">c</text>
	<text transform="matrix(0.9698 -0.2438 0.2438 0.9698 1248.5566 587.5806)" font-family="'LyonDisplay-Regular'" font-size="105">l</text>
	<text transform="matrix(0.9698 -0.2438 0.2438 0.9698 1276.2598 592.3315)" font-family="'LyonDisplay-Regular'" font-size="105">a</text>
	<text transform="matrix(0.9698 -0.2438 0.2438 0.9698 1324.3193 601.7334)" font-family="'LyonDisplay-Regular'" font-size="105">s</text>
	<text transform="matrix(0.9698 -0.2438 0.2438 0.9698 1366.0117 610.8379)" font-family="'LyonDisplay-Regular'" font-size="105">s</text>
	<text transform="matrix(0.9698 -0.2438 0.2438 0.9698 1407.5879 620.8975)" font-family="'LyonDisplay-Regular'" font-size="105">i</text>
	<text transform="matrix(0.9698 -0.2438 0.2438 0.9698 1433.7139 627.5396)" font-family="'LyonDisplay-Regular'" font-size="105">c</text>
	<text transform="matrix(0.9698 -0.2438 0.2438 0.9698 1480.8184 640.6631)" font-family="'LyonDisplay-Regular'" font-size="105">s</text>
	<path fill="none" d="M237.747,860.692C237.747,860.692,812,645,1324,825"/>
	<text transform="matrix(0.966 -0.2585 0.2585 0.966 343.1753 827.5747)" font-family="'LyonDisplay-Regular'" font-size="105">t</text>
	<text transform="matrix(0.966 -0.2585 0.2585 0.966 376.0591 818.6421)" font-family="'LyonDisplay-Regular'" font-size="105">o</text>
	<text transform="matrix(0.966 -0.2585 0.2585 0.966 431.8042 805.2305)" font-family="'LyonDisplay-Regular'" font-size="105"> </text>
	<text transform="matrix(0.966 -0.2585 0.2585 0.966 447.9546 801.4077)" font-family="'LyonDisplay-Regular'" font-size="105">p</text>
	<text transform="matrix(0.966 -0.2585 0.2585 0.966 503.8384 789.8135)" font-family="'LyonDisplay-Regular'" font-size="105">u</text>
	<text transform="matrix(0.966 -0.2585 0.2585 0.966 560.9683 779.7212)" font-family="'LyonDisplay-Regular'" font-size="105">l</text>
	<text transform="matrix(0.966 -0.2585 0.2585 0.966 588.7036 775.1758)" font-family="'LyonDisplay-Regular'" font-size="105">p</text>
	<text transform="matrix(0.966 -0.2585 0.2585 0.966 645.271 767.46)" font-family="'LyonDisplay-Regular'" font-size="105">y</text>
	<text transform="matrix(0.966 -0.2585 0.2585 0.966 694.0396 762.2021)" font-family="'LyonDisplay-Regular'" font-size="105"> </text>
	<text transform="matrix(0.966 -0.2585 0.2585 0.966 710.5366 760.4707)" font-family="'LyonDisplay-Regular'" font-size="105">b</text>
	<text transform="matrix(0.966 -0.2585 0.2585 0.966 765.5503 756.3867)" font-family="'LyonDisplay-Regular'" font-size="105">e</text>
	<text transform="matrix(0.966 -0.2585 0.2585 0.966 815.3306 754.1182)" font-family="'LyonDisplay-Regular'" font-size="105">s</text>
	<text transform="matrix(0.966 -0.2585 0.2585 0.966 857.9731 753.2925)" font-family="'LyonDisplay-Regular'" font-size="105">t</text>
	<text transform="matrix(0.966 -0.2585 0.2585 0.966 892.0366 753.3296)" font-family="'LyonDisplay-Regular'" font-size="105">-</text>
	<text transform="matrix(0.966 -0.2585 0.2585 0.966 930.7573 754.2231)" font-family="'LyonDisplay-Regular'" font-size="105">s</text>
	<text transform="matrix(0.966 -0.2585 0.2585 0.966 973.2441 756.252)" font-family="'LyonDisplay-Regular'" font-size="105">e</text>
	<text transform="matrix(0.966 -0.2585 0.2585 0.966 1022.9053 760.332)" font-family="'LyonDisplay-Regular'" font-size="105">l</text>
	<text transform="matrix(0.966 -0.2585 0.2585 0.966 1050.8496 763.2886)" font-family="'LyonDisplay-Regular'" font-size="105">l</text>
	<text transform="matrix(0.966 -0.2585 0.2585 0.966 1078.6387 766.6201)" font-family="'LyonDisplay-Regular'" font-size="105">e</text>
	<text transform="matrix(0.966 -0.2585 0.2585 0.966 1127.7725 774.2905)" font-family="'LyonDisplay-Regular'" font-size="105">r</text>
	<text transform="matrix(0.966 -0.2585 0.2585 0.966 1164.8281 781.2085)" font-family="'LyonDisplay-Regular'" font-size="105">s</text>
	<text transform="matrix(0.966 -0.2585 0.2585 0.966 1206.3691 790.478)" font-family="'LyonDisplay-Regular'" font-size="105">,</text>
	<path fill="none" d="M328,996.999c0,0,315.788-89.306,741.831,93.712"/>
	<text transform="matrix(0.9959 -0.0904 0.0904 0.9959 412.8135 981.7178)" font-family="'LyonDisplay-Regular'" font-size="105">a</text>
	<text transform="matrix(0.9959 -0.0904 0.0904 0.9959 461.0884 977.2231)" font-family="'LyonDisplay-Regular'" font-size="105">n</text>
	<text transform="matrix(0.9959 -0.0904 0.0904 0.9959 518.3408 974.958)" font-family="'LyonDisplay-Regular'" font-size="105">d</text>
	<text transform="matrix(0.9959 -0.0904 0.0904 0.9959 575.9609 975.9253)" font-family="'LyonDisplay-Regular'" font-size="105"> </text>
	<text transform="matrix(0.9959 -0.0904 0.0904 0.9959 592.4517 976.502)" font-family="'LyonDisplay-Regular'" font-size="105">r</text>
	<text transform="matrix(0.9959 -0.0904 0.0904 0.9959 630.0098 978.832)" font-family="'LyonDisplay-Regular'" font-size="105">a</text>
	<text transform="matrix(0.9959 -0.0904 0.0904 0.9959 678.4326 983.5537)" font-family="'LyonDisplay-Regular'" font-size="105">n</text>
	<text transform="matrix(0.9959 -0.0904 0.0904 0.9959 735.5015 991.9102)" font-family="'LyonDisplay-Regular'" font-size="105"> </text>
	<text transform="matrix(0.9959 -0.0904 0.0904 0.9959 751.8672 994.6084)" font-family="'LyonDisplay-Regular'" font-size="105">t</text>
	<text transform="matrix(0.9959 -0.0904 0.0904 0.9959 785.1733 1000.7114)" font-family="'LyonDisplay-Regular'" font-size="105">h</text>
	<text transform="matrix(0.9959 -0.0904 0.0904 0.9959 841.8496 1013.5405)" font-family="'LyonDisplay-Regular'" font-size="105">e</text>
	<text transform="matrix(0.9959 -0.0904 0.0904 0.9959 889.8086 1025.7939)" font-family="'LyonDisplay-Regular'" font-size="105">m</text>
	<path fill="none" d="M526.95,1248.977c0,0,175.091-95.696,428.164-68.229"/>
	<text transform="matrix(0.9349 -0.3549 0.3549 0.9349 561.8345 1232.7188)" font-family="'LyonDisplay-Regular'" font-size="105">t</text>
	<text transform="matrix(0.9349 -0.3549 0.3549 0.9349 592.8979 1220.5117)" font-family="'LyonDisplay-Regular'" font-size="105">h</text>
	<text transform="matrix(0.9349 -0.3549 0.3549 0.9349 648.1685 1203.7744)" font-family="'LyonDisplay-Regular'" font-size="105">r</text>
	<text transform="matrix(0.9349 -0.3549 0.3549 0.9349 684.27 1194.6812)" font-family="'LyonDisplay-Regular'" font-size="105">o</text>
	<text transform="matrix(0.9349 -0.3549 0.3549 0.9349 739.813 1184.4512)" font-family="'LyonDisplay-Regular'" font-size="105">u</text>
	<text transform="matrix(0.9349 -0.3549 0.3549 0.9349 796.7476 1178.0532)" font-family="'LyonDisplay-Regular'" font-size="105">g</text>
	<text transform="matrix(0.9349 -0.3549 0.3549 0.9349 847.6685 1175.4326)" font-family="'LyonDisplay-Regular'" font-size="105">h</text>
	<path fill="none" d="M694.793,1375.741c0,0,101.207-5.741,180.018,30.003"/>

		<text transform="matrix(0.9912 0.1327 -0.1327 0.9912 753.9521 1376.6011)" font-family="'LyonDisplay-Regular'" font-size="105.0045">a</text>
	<path fill="none" d="M452,3132c0,0,7.961,45.814,458.814,45.922C1236,3178,1434,3294,1434,3294"/>
	<text transform="matrix(0.9907 0.1361 -0.1361 0.9907 532.9458 3158.7544)" font-family="'LyonDisplay-Regular'" font-size="105">I</text>
	<text transform="matrix(0.9907 0.1361 -0.1361 0.9907 568.6162 3163.5054)" font-family="'LyonDisplay-Regular'" font-size="105"> </text>
	<text transform="matrix(0.9907 0.1361 -0.1361 0.9907 586.4414 3165.6489)" font-family="'LyonDisplay-Regular'" font-size="105">c</text>
	<text transform="matrix(0.9907 0.1361 -0.1361 0.9907 635.3994 3169.9302)" font-family="'LyonDisplay-Regular'" font-size="105">o</text>
	<text transform="matrix(0.9907 0.1361 -0.1361 0.9907 692.5723 3173.3647)" font-family="'LyonDisplay-Regular'" font-size="105">u</text>
	<text transform="matrix(0.9907 0.1361 -0.1361 0.9907 750.7192 3175.6021)" font-family="'LyonDisplay-Regular'" font-size="105">l</text>
	<text transform="matrix(0.9907 0.1361 -0.1361 0.9907 778.9976 3176.4683)" font-family="'LyonDisplay-Regular'" font-size="105">d</text>
	<text transform="matrix(0.9907 0.1361 -0.1361 0.9907 837.0122 3177.4565)" font-family="'LyonDisplay-Regular'" font-size="105"> </text>
	<text transform="matrix(0.9907 0.1361 -0.1361 0.9907 853.856 3177.6616)" font-family="'LyonDisplay-Regular'" font-size="105">t</text>
	<text transform="matrix(0.9907 0.1361 -0.1361 0.9907 888.1274 3177.7095)" font-family="'LyonDisplay-Regular'" font-size="105">h</text>
	<text transform="matrix(0.9907 0.1361 -0.1361 0.9907 946.2637 3178.1382)" font-family="'LyonDisplay-Regular'" font-size="105">e</text>
	<text transform="matrix(0.9907 0.1361 -0.1361 0.9907 995.8359 3180.271)" font-family="'LyonDisplay-Regular'" font-size="105">n</text>
	<text transform="matrix(0.9907 0.1361 -0.1361 0.9907 1053.2813 3185.4722)" font-family="'LyonDisplay-Regular'" font-size="105"> </text>
	<text transform="matrix(0.9907 0.1361 -0.1361 0.9907 1069.6445 3187.1167)" font-family="'LyonDisplay-Regular'" font-size="105">e</text>
	<text transform="matrix(0.9907 0.1361 -0.1361 0.9907 1118.7891 3193.9985)" font-family="'LyonDisplay-Regular'" font-size="105">x</text>
	<text transform="matrix(0.9907 0.1361 -0.1361 0.9907 1167.9775 3203.0269)" font-family="'LyonDisplay-Regular'" font-size="105">t</text>
	<text transform="matrix(0.9907 0.1361 -0.1361 0.9907 1201.1572 3210.1655)" font-family="'LyonDisplay-Regular'" font-size="105">r</text>
	<text transform="matrix(0.9907 0.1361 -0.1361 0.9907 1237.6572 3219.0854)" font-family="'LyonDisplay-Regular'" font-size="105">a</text>
	<text transform="matrix(0.9907 0.1361 -0.1361 0.9907 1284.3447 3232.4888)" font-family="'LyonDisplay-Regular'" font-size="105">c</text>
	<text transform="matrix(0.9907 0.1361 -0.1361 0.9907 1330.3193 3248.0806)" font-family="'LyonDisplay-Regular'" font-size="105">t</text>
	<line fill="none" x1="491.112" y1="3742.014" x2="770.098" y2="3784.012"/>

		<text transform="matrix(0.9889 0.1489 -0.1489 0.9889 523.3574 3746.8696)" font-family="'LyonDisplay-Regular'" font-size="55.0026">t</text>

		<text transform="matrix(0.9889 0.1489 -0.1489 0.9889 541.2061 3749.5571)" font-family="'LyonDisplay-Regular'" font-size="55.0026">h</text>

		<text transform="matrix(0.9889 0.1489 -0.1489 0.9889 571.6655 3754.144)" font-family="'LyonDisplay-Regular'" font-size="55.0026">e</text>

		<text transform="matrix(0.9889 0.1489 -0.1489 0.9889 597.7012 3758.064)" font-family="'LyonDisplay-Regular'" font-size="55.0026"> </text>

		<text transform="matrix(0.9889 0.1489 -0.1489 0.9889 606.4648 3759.3833)" font-family="'LyonDisplay-Regular'" font-size="55.0026">o</text>

		<text transform="matrix(0.9889 0.1489 -0.1489 0.9889 636.3218 3763.8774)" font-family="'LyonDisplay-Regular'" font-size="55.0026">w</text>

		<text transform="matrix(0.9889 0.1489 -0.1489 0.9889 675.4424 3769.769)" font-family="'LyonDisplay-Regular'" font-size="55.0026">n</text>

		<text transform="matrix(0.9889 0.1489 -0.1489 0.9889 705.5854 3774.3081)" font-family="'LyonDisplay-Regular'" font-size="55.0026">e</text>

		<text transform="matrix(0.9889 0.1489 -0.1489 0.9889 731.6313 3778.229)" font-family="'LyonDisplay-Regular'" font-size="55.0026">r</text>
	<line fill="none" x1="491.112" y1="3808.35" x2="770.098" y2="3850.346"/>

		<text transform="matrix(0.9889 0.1489 -0.1489 0.9889 570.5132 3820.3022)" font-family="'LyonDisplay-Regular'" font-size="55.0026">o</text>

		<text transform="matrix(0.9889 0.1489 -0.1489 0.9889 600.3813 3824.8013)" font-family="'LyonDisplay-Regular'" font-size="55.0026">f</text>

		<text transform="matrix(0.9889 0.1489 -0.1489 0.9889 617.4971 3827.3784)" font-family="'LyonDisplay-Regular'" font-size="55.0026"> </text>

		<text transform="matrix(0.9889 0.1489 -0.1489 0.9889 626.2847 3828.7007)" font-family="'LyonDisplay-Regular'" font-size="55.0026">t</text>

		<text transform="matrix(0.9889 0.1489 -0.1489 0.9889 644.1084 3831.3843)" font-family="'LyonDisplay-Regular'" font-size="55.0026">h</text>

		<text transform="matrix(0.9889 0.1489 -0.1489 0.9889 674.5757 3835.9722)" font-family="'LyonDisplay-Regular'" font-size="55.0026">e</text>
	<line fill="none" x1="491.112" y1="3875.008" x2="770.098" y2="3917.006"/>

		<text transform="matrix(0.9889 0.1489 -0.1489 0.9889 512.3877 3878.2114)" font-family="'LyonDisplay-Regular'" font-size="55.0026">b</text>

		<text transform="matrix(0.9889 0.1489 -0.1489 0.9889 541.1978 3882.5493)" font-family="'LyonDisplay-Regular'" font-size="55.0026">o</text>

		<text transform="matrix(0.9889 0.1489 -0.1489 0.9889 571.061 3887.0464)" font-family="'LyonDisplay-Regular'" font-size="55.0026">d</text>

		<text transform="matrix(0.9889 0.1489 -0.1489 0.9889 601.2104 3891.5845)" font-family="'LyonDisplay-Regular'" font-size="55.0026">y</text>

		<text transform="matrix(0.9889 0.1489 -0.1489 0.9889 626.7681 3895.4341)" font-family="'LyonDisplay-Regular'" font-size="55.0026"> </text>

		<text transform="matrix(0.9889 0.1489 -0.1489 0.9889 635.52 3896.7505)" font-family="'LyonDisplay-Regular'" font-size="55.0026">p</text>

		<text transform="matrix(0.9889 0.1489 -0.1489 0.9889 665.3223 3901.2378)" font-family="'LyonDisplay-Regular'" font-size="55.0026">a</text>

		<text transform="matrix(0.9889 0.1489 -0.1489 0.9889 690.8853 3905.0874)" font-family="'LyonDisplay-Regular'" font-size="55.0026">r</text>

		<text transform="matrix(0.9889 0.1489 -0.1489 0.9889 710.707 3908.0718)" font-family="'LyonDisplay-Regular'" font-size="55.0026">t</text>

		<text transform="matrix(0.9889 0.1489 -0.1489 0.9889 728.5381 3910.7554)" font-family="'LyonDisplay-Regular'" font-size="55.0026">s</text>
	<line fill="none" x1="1055.168" y1="3770.022" x2="1334.154" y2="3812.02"/>

		<text transform="matrix(0.9889 0.1489 -0.1489 0.9889 1160.8037 3785.9243)" font-family="'LyonDisplay-Regular'" font-size="55.0026">a</text>

		<text transform="matrix(0.9889 0.1489 -0.1489 0.9889 1186.3896 3789.7778)" font-family="'LyonDisplay-Regular'" font-size="55.0026">n</text>
	<text transform="matrix(0.9889 0.1489 -0.1489 0.9889 1216.5 3794.311)" font-family="'LyonDisplay-Regular'" font-size="55.0026">y</text>
	<line fill="none" x1="1055.168" y1="3839.667" x2="1334.154" y2="3881.665"/>

		<text transform="matrix(0.9889 0.1489 -0.1489 0.9889 1086.2852 3844.353)" font-family="'LyonDisplay-Regular'" font-size="55.0026">a</text>

		<text transform="matrix(0.9889 0.1489 -0.1489 0.9889 1111.8379 3848.1987)" font-family="'LyonDisplay-Regular'" font-size="55.0026">d</text>

		<text transform="matrix(0.9889 0.1489 -0.1489 0.9889 1141.959 3852.7358)" font-family="'LyonDisplay-Regular'" font-size="55.0026">j</text>

		<text transform="matrix(0.9889 0.1489 -0.1489 0.9889 1155.8467 3854.8267)" font-family="'LyonDisplay-Regular'" font-size="55.0026">e</text>

		<text transform="matrix(0.9889 0.1489 -0.1489 0.9889 1181.9102 3858.7515)" font-family="'LyonDisplay-Regular'" font-size="55.0026">c</text>

		<text transform="matrix(0.9889 0.1489 -0.1489 0.9889 1207.4063 3862.5903)" font-family="'LyonDisplay-Regular'" font-size="55.0026">t</text>

		<text transform="matrix(0.9889 0.1489 -0.1489 0.9889 1225.2344 3865.2759)" font-family="'LyonDisplay-Regular'" font-size="55.0026">i</text>

		<text transform="matrix(0.9889 0.1489 -0.1489 0.9889 1239.3955 3867.4058)" font-family="'LyonDisplay-Regular'" font-size="55.0026">v</text>

		<text transform="matrix(0.9889 0.1489 -0.1489 0.9889 1264.6377 3871.2065)" font-family="'LyonDisplay-Regular'" font-size="55.0026">e</text>

		<text transform="matrix(0.9889 0.1489 -0.1489 0.9889 1290.6709 3875.1274)" font-family="'LyonDisplay-Regular'" font-size="55.0026">s</text>
	<line fill="none" x1="1055.168" y1="3909.643" x2="1334.154" y2="3951.639"/>

		<text transform="matrix(0.9889 0.1489 -0.1489 0.9889 1076.6475 3912.8765)" font-family="'LyonDisplay-Regular'" font-size="55.0026">d</text>

		<text transform="matrix(0.9889 0.1489 -0.1489 0.9889 1106.7852 3917.4136)" font-family="'LyonDisplay-Regular'" font-size="55.0026">e</text>

		<text transform="matrix(0.9889 0.1489 -0.1489 0.9889 1132.8213 3921.3354)" font-family="'LyonDisplay-Regular'" font-size="55.0026">s</text>

		<text transform="matrix(0.9889 0.1489 -0.1489 0.9889 1155.1387 3924.6948)" font-family="'LyonDisplay-Regular'" font-size="55.0026">c</text>

		<text transform="matrix(0.9889 0.1489 -0.1489 0.9889 1180.6563 3928.5366)" font-family="'LyonDisplay-Regular'" font-size="55.0026">r</text>

		<text transform="matrix(0.9889 0.1489 -0.1489 0.9889 1200.4521 3931.5171)" font-family="'LyonDisplay-Regular'" font-size="55.0026">i</text>

		<text transform="matrix(0.9889 0.1489 -0.1489 0.9889 1214.5986 3933.647)" font-family="'LyonDisplay-Regular'" font-size="55.0026">b</text>

		<text transform="matrix(0.9889 0.1489 -0.1489 0.9889 1243.4092 3937.9858)" font-family="'LyonDisplay-Regular'" font-size="55.0026">i</text>

		<text transform="matrix(0.9889 0.1489 -0.1489 0.9889 1257.5713 3940.1177)" font-family="'LyonDisplay-Regular'" font-size="55.0026">n</text>

		<text transform="matrix(0.9889 0.1489 -0.1489 0.9889 1287.6797 3944.6509)" font-family="'LyonDisplay-Regular'" font-size="55.0026">g</text>
	<line fill="none" x1="1055.168" y1="3979.016" x2="1334.154" y2="4021.014"/>

		<text transform="matrix(0.9889 0.1489 -0.1489 0.9889 1128.5859 3990.0688)" font-family="'LyonDisplay-Regular'" font-size="55.0026">t</text>

		<text transform="matrix(0.9889 0.1489 -0.1489 0.9889 1146.4326 3992.7563)" font-family="'LyonDisplay-Regular'" font-size="55.0026">h</text>

		<text transform="matrix(0.9889 0.1489 -0.1489 0.9889 1176.8877 3997.3433)" font-family="'LyonDisplay-Regular'" font-size="55.0026">e</text>

		<text transform="matrix(0.9889 0.1489 -0.1489 0.9889 1202.9434 4001.2661)" font-family="'LyonDisplay-Regular'" font-size="55.0026">m</text>

		<text transform="matrix(0.9889 0.1489 -0.1489 0.9889 1249.4395 4008.2681)" font-family="'LyonDisplay-Regular'" font-size="55.0026">.</text>
	<text transform="matrix(1 0 0 1 885.5674 3972.0005)" font-family="'LyonDisplay-Regular'" font-size="95">&amp;</text>
</g>
<g id="library_card_text">

		<text transform="matrix(0.9799 0.1994 -0.1994 0.9799 1441.0527 874.1328)" font-family="'WalterTurncoat-Regular'" font-size="32">(getting myself  </text>

		<text transform="matrix(0.9799 0.1994 -0.1994 0.9799 1452.2744 915.6025)" font-family="'WalterTurncoat-Regular'" font-size="32">banned from  </text>

		<text transform="matrix(0.9799 0.1994 -0.1994 0.9799 1448.7207 954.0664)" font-family="'WalterTurncoat-Regular'" font-size="32">the library—</text>

		<text transform="matrix(0.9799 0.1994 -0.1994 0.9799 1493.9619 1002.459)" font-family="'WalterTurncoat-Regular'" font-size="32">twice)</text>
</g>
<g id="FX">
	<g>
		<path fill="none" stroke="#CC0A0A" stroke-width="15" stroke-linecap="round" stroke-miterlimit="10" d="M1328.567,793.158
			c-2.962,75.305,40.831,145.096,47.997,218.989"/>
		<path fill="none" stroke="#CC0A0A" stroke-width="15" stroke-linecap="round" stroke-miterlimit="10" d="M1408.063,820.157
			c-19.577,21.735-36.557,47.022-52.24,71.628c-22.001,34.513-47.003,70.733-60.253,109.863"/>
	</g>
</g>
</svg>
