<svg viewBox="0 0 1500 2065" fill="none" xmlns="http://www.w3.org/2000/svg">
<path d="M191.158 1310.02C191.158 1310.02 227.945 1312.18 279.882 1305.69C331.819 1299.2 442.183 1310.02 470.316 1303.53C498.448 1297.04 745.143 1299.2 797.081 1297.04C849.018 1294.87 1145.49 1290.55 1195.26 1290.55C1245.03 1290.55 1390.02 1290.55 1390.02 1290.55C1390.02 1290.55 1400.84 1283.58 1400.84 1303.53C1400.84 1342.48 1422.48 1519.93 1422.48 1519.93C1422.48 1519.93 1223.39 1537.24 1197.42 1543.73C1171.46 1550.23 918.266 1628.13 918.266 1628.13L821.779 1594.91C834.947 1593.88 838.55 1567.38 838.003 1565C831.512 1536.87 819.615 1553.8 819.615 1553.8C819.615 1553.8 840 1503 802 1503C751.343 1503 754.729 1541.09 753.318 1558.88C752.947 1563.59 733.709 1554.94 736.006 1600C736.006 1600 446.51 1591.34 401.067 1597.83C372.935 1600 188.994 1541.57 158.698 1545.9C158.698 1545.9 163.026 1498.29 178.174 1413.89C193.322 1329.5 191.158 1310.02 191.158 1310.02Z" fill="#9BBED4"/>
<path d="M191.158 1290.02C191.158 1290.02 227.945 1292.18 279.882 1285.69C331.819 1279.2 442.183 1290.01 470.316 1283.52C498.448 1277.03 745.143 1279.2 797.081 1277.03C849.018 1274.87 1145.49 1270.54 1195.26 1270.54C1245.03 1270.54 1390.02 1270.54 1390.02 1270.54C1390.02 1270.54 1400.84 1263.57 1400.84 1283.52C1400.84 1322.48 1422.48 1499.93 1422.48 1499.93C1422.48 1499.93 1223.39 1517.24 1197.42 1523.73C1171.46 1530.22 918.266 1608.13 918.266 1608.13L844.692 1582.16C857.86 1581.13 861.463 1554.62 860.916 1552.25C854.425 1524.11 842.528 1541.04 842.528 1541.04C842.528 1541.04 845.155 1472.8 791.664 1483C741.902 1492.48 744.393 1521.09 742.982 1538.88C742.611 1543.59 723.374 1534.93 725.67 1579.99C725.67 1579.99 446.513 1571.34 401.068 1577.83C372.936 1579.99 188.995 1521.56 158.698 1525.89C158.698 1525.89 163.026 1478.29 178.174 1393.89C193.322 1309.49 191.158 1290.02 191.158 1290.02Z" fill="#FAFAFA" stroke="black" stroke-width="9" stroke-miterlimit="10" stroke-linecap="round" stroke-linejoin="round"/>
<text transform="translate(273.856 1315.22) rotate(-1.11162)" fill="#1C1143" xml:space="preserve" style="white-space: pre" font-family="Walter Turncoat" font-size="66.3659" letter-spacing="0em"><tspan x="0" y="70.9659">The physical traits  that define</tspan></text>
<text transform="translate(354.616 1393.31) rotate(-1.11162)" fill="#1C1143" xml:space="preserve" style="white-space: pre" font-family="Walter Turncoat" font-size="66.3659" letter-spacing="0em"><tspan x="0" y="70.9659">men &#38; women in literature</tspan></text>
</svg>
