<svg xmlns:x="http://ns.adobe.com/Extensibility/1.0/" xmlns:i="http://ns.adobe.com/AdobeIllustrator/10.0/" xmlns:graph="http://ns.adobe.com/Graphs/1.0/" xmlns="http://www.w3.org/2000/svg" xmlns:xlink="http://www.w3.org/1999/xlink" version="1.1" x="0px" y="0px" viewBox="0 0 1920 1080" enable-background="new 0 0 1920 1080" xml:space="preserve">
  <g id="SUBTITLE_2">
      <path fill="#FAFAFA" stroke="#000000" stroke-width="5" stroke-linecap="round" stroke-linejoin="round" stroke-miterlimit="10" d="     M557.111,853.575c0,0,25.498,1.499,61.497-3s112.495,2.999,131.994-1.5s190.489-2.999,226.488-4.499s241.488-4.5,275.986-4.5     s134.993,0,134.993,0s7.5-4.83,7.5,8.999c0,26.999,14.999,149.993,14.999,149.993s-137.993,11.999-155.992,16.499     s-193.49,58.497-193.49,58.497l-50.997-17.999c9.127-0.715,11.625-19.086,11.245-20.732c-4.499-19.499-12.745-7.767-12.745-7.767     s1.821-47.3-35.255-40.232c-34.491,6.574-32.765,26.401-33.742,38.732c-0.259,3.267-13.592-2.733-12,28.499     c0,0-193.49-6-224.989-1.5c-19.499,1.5-146.993-38.998-167.992-35.998c0,0,3-32.998,13.5-91.495S557.111,853.575,557.111,853.575     z"/>
    <text transform="matrix(0.9998 -0.0194 0.0194 0.9998 615.3364 908.7334)"><tspan x="0" y="0" fill="#1C1143" font-family="'WalterTurncoat-Regular'" font-size="45.9999">The physical traits  that define</tspan><tspan x="54.917" y="55.201" fill="#1C1143" font-family="'WalterTurncoat-Regular'" font-size="45.9999">men &amp; women in literature</tspan></text>
  </g>
</svg>
