<svg viewBox="0 0 1920 1080" fill="none" xmlns="http://www.w3.org/2000/svg">
<g clip-path="url(#clip0)">
<path d="M556.5 867.268C556.5 867.268 581.999 868.767 617.999 864.268C654 859.77 730.499 867.268 750 862.768C769.5 858.27 940.498 859.77 976.499 858.27C1012.5 856.77 1218 853.769 1252.5 853.769C1287 853.769 1387.5 853.769 1387.5 853.769C1387.5 853.769 1395 848.939 1395 862.768C1395 889.769 1410 1012.77 1410 1012.77C1410 1012.77 1272 1024.77 1254 1029.27C1236 1033.77 1060.5 1087.77 1060.5 1087.77L993.619 1064.74C1002.75 1064.03 1005.24 1045.66 1004.86 1044.01C1000.37 1024.51 992.119 1036.24 992.119 1036.24C992.119 1036.24 1006.25 1001.03 979.909 1001.03C944.796 1001.03 947.143 1027.44 946.165 1039.77C945.908 1043.03 932.573 1037.03 934.165 1068.27C934.165 1068.27 733.499 1062.27 702 1066.77C682.5 1068.27 555 1027.77 534 1030.77C534 1030.77 537 997.768 547.5 939.267C558 880.768 556.5 867.268 556.5 867.268Z" fill="#9BBED4"/>
<path d="M556.5 853.401C556.5 853.401 581.999 854.901 617.999 850.401C654 845.903 730.499 853.401 750 848.902C769.5 844.403 940.498 845.903 976.499 844.403C1012.5 842.903 1218 839.903 1252.5 839.903C1287 839.903 1387.5 839.903 1387.5 839.903C1387.5 839.903 1395 835.073 1395 848.902C1395 875.902 1410 998.902 1410 998.902C1410 998.902 1272 1010.9 1254 1015.4C1236 1019.9 1060.5 1073.9 1060.5 1073.9L1009.5 1055.9C1018.63 1055.19 1021.13 1036.82 1020.75 1035.17C1016.25 1015.67 1008 1027.4 1008 1027.4C1008 1027.4 1009.82 980.1 972.744 987.167C938.252 993.741 939.978 1013.57 939 1025.9C938.743 1029.17 925.409 1023.17 927 1054.4C927 1054.4 733.501 1048.4 702 1052.9C682.5 1054.4 555.001 1013.9 534 1016.9C534 1016.9 537 983.903 547.5 925.402C558 866.902 556.5 853.401 556.5 853.401Z" fill="#FAFAFA" stroke="black" stroke-width="5" stroke-miterlimit="10" stroke-linecap="round" stroke-linejoin="round"/>
<text transform="matrix(0.99983 -0.0178078 0.0211344 0.999765 608.743 870.872)" fill="#1C1143" xml:space="preserve" style="white-space: pre" font-family="Walter Turncoat" font-size="46" letter-spacing="0em"><tspan x="0" y="48.958">The physical traits  that define</tspan></text>
<text transform="matrix(0.99983 -0.0178078 0.0211344 0.999765 669.729 924.999)" fill="#1C1143" xml:space="preserve" style="white-space: pre" font-family="Walter Turncoat" font-size="46" letter-spacing="0em"><tspan x="0" y="48.958">men &#38; women in literature</tspan></text>
</g>
<defs>
<clipPath id="clip0">

</clipPath>
</defs>
</svg>
